<svg width="211" height="36" viewBox="0 0 211 36" fill="none" xmlns="http://www.w3.org/2000/svg">
    <path d="M8.952 5.84469C7.944 5.84469 7.236 5.64069 6.828 5.23269C6.444 4.82469 6.252 4.32069 6.252 3.72069V2.96469C6.252 2.36469 6.444 1.86069 6.828 1.45269C7.236 1.04469 7.932 0.840687 8.916 0.840687C9.924 0.840687 10.62 1.04469 11.004 1.45269C11.412 1.86069 11.616 2.36469 11.616 2.96469V3.72069C11.616 4.32069 11.412 4.82469 11.004 5.23269C10.62 5.64069 9.936 5.84469 8.952 5.84469ZM0.636 24.6367H6.972V12.3967H0.636V9.22869H10.896V24.6367H16.836V27.8047H0.636V24.6367ZM30.5019 27.8047C28.8699 27.8047 27.6699 27.3727 26.9019 26.5087C26.1339 25.6207 25.7499 24.4807 25.7499 23.0887V12.3967H20.0259V9.22869H24.0939C24.7899 9.22869 25.2819 9.09669 25.5699 8.83269C25.8579 8.54469 26.0019 8.04069 26.0019 7.32069V2.67669H29.6739V9.22869H37.5939V12.3967H29.6739V24.6367H37.5939V27.8047H30.5019ZM50.9719 28.1647C49.8199 28.1647 49.0039 27.9247 48.5239 27.4447C48.0679 26.9647 47.8399 26.3767 47.8399 25.6807V24.7447C47.8399 24.0487 48.0679 23.4607 48.5239 22.9807C49.0039 22.5007 49.8199 22.2607 50.9719 22.2607C52.1239 22.2607 52.9279 22.5007 53.3839 22.9807C53.8639 23.4607 54.1039 24.0487 54.1039 24.7447V25.6807C54.1039 26.3767 53.8639 26.9647 53.3839 27.4447C52.9279 27.9247 52.1239 28.1647 50.9719 28.1647ZM64.4578 24.6367H70.6138V4.33269H64.4578V1.16469H74.5378V24.6367H80.6938V27.8047H64.4578V24.6367ZM94.5398 28.2367C93.1238 28.2367 91.8518 28.0087 90.7238 27.5527C89.5958 27.0967 88.6478 26.4487 87.8798 25.6087C87.1118 24.7687 86.5238 23.7607 86.1158 22.5847C85.7078 21.3847 85.5038 20.0407 85.5038 18.5527C85.5038 17.0647 85.7078 15.7207 86.1158 14.5207C86.5478 13.3207 87.1358 12.3007 87.8798 11.4607C88.6478 10.5967 89.5718 9.93669 90.6518 9.48069C91.7318 9.02469 92.9318 8.79669 94.2518 8.79669C95.5478 8.79669 96.7238 9.02469 97.7798 9.48069C98.8358 9.91269 99.7358 10.5367 100.48 11.3527C101.224 12.1687 101.788 13.1407 102.172 14.2687C102.58 15.3967 102.784 16.6447 102.784 18.0127V19.4887H89.4638V20.1007C89.4638 21.5647 89.9198 22.7647 90.8318 23.7007C91.7438 24.6127 93.0038 25.0687 94.6118 25.0687C95.8118 25.0687 96.8318 24.8167 97.6718 24.3127C98.5358 23.7847 99.2318 23.0887 99.7598 22.2247L102.208 24.3847C101.584 25.4647 100.624 26.3767 99.3278 27.1207C98.0558 27.8647 96.4598 28.2367 94.5398 28.2367ZM94.2518 11.7847C93.5558 11.7847 92.9078 11.9047 92.3078 12.1447C91.7318 12.3847 91.2278 12.7327 90.7958 13.1887C90.3878 13.6207 90.0638 14.1367 89.8238 14.7367C89.5838 15.3367 89.4638 15.9967 89.4638 16.7167V16.9687H98.7878V16.6087C98.7878 15.1447 98.3678 13.9807 97.5278 13.1167C96.7118 12.2287 95.6198 11.7847 94.2518 11.7847ZM125.45 29.8207C125.45 31.7407 124.646 33.1567 123.038 34.0687C121.43 34.9807 118.982 35.4367 115.694 35.4367C114.086 35.4367 112.73 35.3287 111.626 35.1127C110.546 34.9207 109.658 34.6327 108.962 34.2487C108.29 33.8647 107.798 33.3967 107.486 32.8447C107.198 32.2927 107.054 31.6687 107.054 30.9727C107.054 29.9647 107.33 29.1727 107.882 28.5967C108.458 28.0447 109.262 27.6367 110.294 27.3727V27.0127C109.67 26.7727 109.166 26.4367 108.782 26.0047C108.422 25.5727 108.242 25.0087 108.242 24.3127C108.242 23.4007 108.554 22.7167 109.178 22.2607C109.802 21.7807 110.606 21.4207 111.59 21.1807V21.0007C110.462 20.4727 109.586 19.7287 108.962 18.7687C108.338 17.8087 108.026 16.6567 108.026 15.3127C108.026 14.3287 108.206 13.4407 108.566 12.6487C108.926 11.8327 109.43 11.1487 110.078 10.5967C110.75 10.0207 111.542 9.57669 112.454 9.26469C113.39 8.95269 114.434 8.79669 115.586 8.79669C116.882 8.79669 118.046 9.00069 119.078 9.40869V8.79669C119.078 8.07669 119.282 7.47669 119.69 6.99669C120.098 6.51669 120.722 6.27669 121.562 6.27669H124.946V9.37269H120.626V10.2367C121.442 10.7887 122.066 11.4967 122.498 12.3607C122.93 13.2007 123.146 14.1847 123.146 15.3127C123.146 16.2967 122.966 17.1967 122.606 18.0127C122.246 18.8047 121.73 19.4887 121.058 20.0647C120.41 20.6167 119.618 21.0487 118.682 21.3607C117.77 21.6487 116.738 21.7927 115.586 21.7927C114.77 21.7927 114.002 21.7207 113.282 21.5767C112.85 21.6967 112.418 21.9007 111.986 22.1887C111.554 22.4767 111.338 22.8727 111.338 23.3767C111.338 23.9527 111.614 24.3127 112.166 24.4567C112.718 24.6007 113.402 24.6727 114.218 24.6727H118.394C120.89 24.6727 122.69 25.1527 123.794 26.1127C124.898 27.0487 125.45 28.2847 125.45 29.8207ZM121.778 30.0727C121.778 29.4487 121.526 28.9447 121.022 28.5607C120.518 28.2007 119.606 28.0207 118.286 28.0207H111.842C110.93 28.4527 110.474 29.1487 110.474 30.1087C110.474 30.8047 110.762 31.4047 111.338 31.9087C111.938 32.4127 112.922 32.6647 114.29 32.6647H117.206C118.694 32.6647 119.822 32.4367 120.59 31.9807C121.382 31.5487 121.778 30.9127 121.778 30.0727ZM115.586 19.0927C116.858 19.0927 117.794 18.7927 118.394 18.1927C118.994 17.5927 119.294 16.7887 119.294 15.7807V14.8087C119.294 13.8007 118.994 12.9967 118.394 12.3967C117.794 11.7967 116.858 11.4967 115.586 11.4967C114.314 11.4967 113.378 11.7967 112.778 12.3967C112.178 12.9967 111.878 13.8007 111.878 14.8087V15.7807C111.878 16.7887 112.178 17.5927 112.778 18.1927C113.378 18.7927 114.314 19.0927 115.586 19.0927ZM144.228 27.8047C143.1 27.8047 142.248 27.5167 141.672 26.9407C141.12 26.3647 140.784 25.6087 140.664 24.6727H140.484C140.124 25.8007 139.464 26.6767 138.504 27.3007C137.568 27.9247 136.368 28.2367 134.904 28.2367C133.008 28.2367 131.496 27.7447 130.368 26.7607C129.24 25.7527 128.676 24.3727 128.676 22.6207C128.676 20.8207 129.336 19.4527 130.656 18.5167C132 17.5567 134.052 17.0767 136.812 17.0767H140.376V15.6367C140.376 13.1167 139.044 11.8567 136.38 11.8567C135.18 11.8567 134.208 12.0967 133.464 12.5767C132.72 13.0327 132.096 13.6447 131.592 14.4127L129.252 12.5047C129.78 11.4967 130.668 10.6327 131.916 9.91269C133.164 9.16869 134.772 8.79669 136.74 8.79669C139.092 8.79669 140.94 9.36069 142.284 10.4887C143.628 11.6167 144.3 13.2487 144.3 15.3847V24.7087H146.64V27.8047H144.228ZM136.02 25.3567C137.292 25.3567 138.336 25.0687 139.152 24.4927C139.968 23.9167 140.376 23.1727 140.376 22.2607V19.5607H136.884C134.052 19.5607 132.636 20.4127 132.636 22.1167V22.8367C132.636 23.6767 132.936 24.3127 133.536 24.7447C134.136 25.1527 134.964 25.3567 136.02 25.3567ZM150.802 24.6367H156.958V4.33269H150.802V1.16469H160.882V24.6367H167.038V27.8047H150.802V24.6367ZM172.748 23.5567L184.664 16.9687V16.6807L172.748 10.1287V6.27669L188.228 14.9527V18.6967L172.748 27.3727V23.5567ZM193.433 34.2487V30.8647H210.713V34.2487H193.433Z" fill="#F75900"/>
    <path d="M8.952 5.84469C7.944 5.84469 7.236 5.64069 6.828 5.23269C6.444 4.82469 6.252 4.32069 6.252 3.72069V2.96469C6.252 2.36469 6.444 1.86069 6.828 1.45269C7.236 1.04469 7.932 0.840687 8.916 0.840687C9.924 0.840687 10.62 1.04469 11.004 1.45269C11.412 1.86069 11.616 2.36469 11.616 2.96469V3.72069C11.616 4.32069 11.412 4.82469 11.004 5.23269C10.62 5.64069 9.936 5.84469 8.952 5.84469ZM0.636 24.6367H6.972V12.3967H0.636V9.22869H10.896V24.6367H16.836V27.8047H0.636V24.6367ZM30.5019 27.8047C28.8699 27.8047 27.6699 27.3727 26.9019 26.5087C26.1339 25.6207 25.7499 24.4807 25.7499 23.0887V12.3967H20.0259V9.22869H24.0939C24.7899 9.22869 25.2819 9.09669 25.5699 8.83269C25.8579 8.54469 26.0019 8.04069 26.0019 7.32069V2.67669H29.6739V9.22869H37.5939V12.3967H29.6739V24.6367H37.5939V27.8047H30.5019ZM50.9719 28.1647C49.8199 28.1647 49.0039 27.9247 48.5239 27.4447C48.0679 26.9647 47.8399 26.3767 47.8399 25.6807V24.7447C47.8399 24.0487 48.0679 23.4607 48.5239 22.9807C49.0039 22.5007 49.8199 22.2607 50.9719 22.2607C52.1239 22.2607 52.9279 22.5007 53.3839 22.9807C53.8639 23.4607 54.1039 24.0487 54.1039 24.7447V25.6807C54.1039 26.3767 53.8639 26.9647 53.3839 27.4447C52.9279 27.9247 52.1239 28.1647 50.9719 28.1647ZM64.4578 24.6367H70.6138V4.33269H64.4578V1.16469H74.5378V24.6367H80.6938V27.8047H64.4578V24.6367ZM94.5398 28.2367C93.1238 28.2367 91.8518 28.0087 90.7238 27.5527C89.5958 27.0967 88.6478 26.4487 87.8798 25.6087C87.1118 24.7687 86.5238 23.7607 86.1158 22.5847C85.7078 21.3847 85.5038 20.0407 85.5038 18.5527C85.5038 17.0647 85.7078 15.7207 86.1158 14.5207C86.5478 13.3207 87.1358 12.3007 87.8798 11.4607C88.6478 10.5967 89.5718 9.93669 90.6518 9.48069C91.7318 9.02469 92.9318 8.79669 94.2518 8.79669C95.5478 8.79669 96.7238 9.02469 97.7798 9.48069C98.8358 9.91269 99.7358 10.5367 100.48 11.3527C101.224 12.1687 101.788 13.1407 102.172 14.2687C102.58 15.3967 102.784 16.6447 102.784 18.0127V19.4887H89.4638V20.1007C89.4638 21.5647 89.9198 22.7647 90.8318 23.7007C91.7438 24.6127 93.0038 25.0687 94.6118 25.0687C95.8118 25.0687 96.8318 24.8167 97.6718 24.3127C98.5358 23.7847 99.2318 23.0887 99.7598 22.2247L102.208 24.3847C101.584 25.4647 100.624 26.3767 99.3278 27.1207C98.0558 27.8647 96.4598 28.2367 94.5398 28.2367ZM94.2518 11.7847C93.5558 11.7847 92.9078 11.9047 92.3078 12.1447C91.7318 12.3847 91.2278 12.7327 90.7958 13.1887C90.3878 13.6207 90.0638 14.1367 89.8238 14.7367C89.5838 15.3367 89.4638 15.9967 89.4638 16.7167V16.9687H98.7878V16.6087C98.7878 15.1447 98.3678 13.9807 97.5278 13.1167C96.7118 12.2287 95.6198 11.7847 94.2518 11.7847ZM125.45 29.8207C125.45 31.7407 124.646 33.1567 123.038 34.0687C121.43 34.9807 118.982 35.4367 115.694 35.4367C114.086 35.4367 112.73 35.3287 111.626 35.1127C110.546 34.9207 109.658 34.6327 108.962 34.2487C108.29 33.8647 107.798 33.3967 107.486 32.8447C107.198 32.2927 107.054 31.6687 107.054 30.9727C107.054 29.9647 107.33 29.1727 107.882 28.5967C108.458 28.0447 109.262 27.6367 110.294 27.3727V27.0127C109.67 26.7727 109.166 26.4367 108.782 26.0047C108.422 25.5727 108.242 25.0087 108.242 24.3127C108.242 23.4007 108.554 22.7167 109.178 22.2607C109.802 21.7807 110.606 21.4207 111.59 21.1807V21.0007C110.462 20.4727 109.586 19.7287 108.962 18.7687C108.338 17.8087 108.026 16.6567 108.026 15.3127C108.026 14.3287 108.206 13.4407 108.566 12.6487C108.926 11.8327 109.43 11.1487 110.078 10.5967C110.75 10.0207 111.542 9.57669 112.454 9.26469C113.39 8.95269 114.434 8.79669 115.586 8.79669C116.882 8.79669 118.046 9.00069 119.078 9.40869V8.79669C119.078 8.07669 119.282 7.47669 119.69 6.99669C120.098 6.51669 120.722 6.27669 121.562 6.27669H124.946V9.37269H120.626V10.2367C121.442 10.7887 122.066 11.4967 122.498 12.3607C122.93 13.2007 123.146 14.1847 123.146 15.3127C123.146 16.2967 122.966 17.1967 122.606 18.0127C122.246 18.8047 121.73 19.4887 121.058 20.0647C120.41 20.6167 119.618 21.0487 118.682 21.3607C117.77 21.6487 116.738 21.7927 115.586 21.7927C114.77 21.7927 114.002 21.7207 113.282 21.5767C112.85 21.6967 112.418 21.9007 111.986 22.1887C111.554 22.4767 111.338 22.8727 111.338 23.3767C111.338 23.9527 111.614 24.3127 112.166 24.4567C112.718 24.6007 113.402 24.6727 114.218 24.6727H118.394C120.89 24.6727 122.69 25.1527 123.794 26.1127C124.898 27.0487 125.45 28.2847 125.45 29.8207ZM121.778 30.0727C121.778 29.4487 121.526 28.9447 121.022 28.5607C120.518 28.2007 119.606 28.0207 118.286 28.0207H111.842C110.93 28.4527 110.474 29.1487 110.474 30.1087C110.474 30.8047 110.762 31.4047 111.338 31.9087C111.938 32.4127 112.922 32.6647 114.29 32.6647H117.206C118.694 32.6647 119.822 32.4367 120.59 31.9807C121.382 31.5487 121.778 30.9127 121.778 30.0727ZM115.586 19.0927C116.858 19.0927 117.794 18.7927 118.394 18.1927C118.994 17.5927 119.294 16.7887 119.294 15.7807V14.8087C119.294 13.8007 118.994 12.9967 118.394 12.3967C117.794 11.7967 116.858 11.4967 115.586 11.4967C114.314 11.4967 113.378 11.7967 112.778 12.3967C112.178 12.9967 111.878 13.8007 111.878 14.8087V15.7807C111.878 16.7887 112.178 17.5927 112.778 18.1927C113.378 18.7927 114.314 19.0927 115.586 19.0927ZM144.228 27.8047C143.1 27.8047 142.248 27.5167 141.672 26.9407C141.12 26.3647 140.784 25.6087 140.664 24.6727H140.484C140.124 25.8007 139.464 26.6767 138.504 27.3007C137.568 27.9247 136.368 28.2367 134.904 28.2367C133.008 28.2367 131.496 27.7447 130.368 26.7607C129.24 25.7527 128.676 24.3727 128.676 22.6207C128.676 20.8207 129.336 19.4527 130.656 18.5167C132 17.5567 134.052 17.0767 136.812 17.0767H140.376V15.6367C140.376 13.1167 139.044 11.8567 136.38 11.8567C135.18 11.8567 134.208 12.0967 133.464 12.5767C132.72 13.0327 132.096 13.6447 131.592 14.4127L129.252 12.5047C129.78 11.4967 130.668 10.6327 131.916 9.91269C133.164 9.16869 134.772 8.79669 136.74 8.79669C139.092 8.79669 140.94 9.36069 142.284 10.4887C143.628 11.6167 144.3 13.2487 144.3 15.3847V24.7087H146.64V27.8047H144.228ZM136.02 25.3567C137.292 25.3567 138.336 25.0687 139.152 24.4927C139.968 23.9167 140.376 23.1727 140.376 22.2607V19.5607H136.884C134.052 19.5607 132.636 20.4127 132.636 22.1167V22.8367C132.636 23.6767 132.936 24.3127 133.536 24.7447C134.136 25.1527 134.964 25.3567 136.02 25.3567ZM150.802 24.6367H156.958V4.33269H150.802V1.16469H160.882V24.6367H167.038V27.8047H150.802V24.6367ZM172.748 23.5567L184.664 16.9687V16.6807L172.748 10.1287V6.27669L188.228 14.9527V18.6967L172.748 27.3727V23.5567ZM193.433 34.2487V30.8647H210.713V34.2487H193.433Z" fill="white"/>
</svg>