<svg width="121" height="121" viewBox="0 0 121 121" fill="none" xmlns="http://www.w3.org/2000/svg">
<path d="M58.3398 109.888C74.0411 106.995 79.2428 104.11 84.5834 100.69C87.9039 98.5689 91.5264 95.7198 94.5252 92.8749M58.3398 109.888C43.7454 107.39 35.2797 97.9073 24.2305 102.929C20.9932 104.404 18.5692 106.611 16.7954 108.738C15.5717 110.205 13.5876 110.947 11.9253 110.005C9.44848 108.603 6.11947 105.988 4.50786 101.533C3.47691 98.6825 3.50612 96.0607 3.73812 94.2449C3.8669 93.237 4.45784 92.3636 5.28761 91.7771C13.2231 86.1683 28.0291 77.407 46.939 75.5989C66.6908 73.7114 85.2872 79.3729 88.2268 80.4928C91.1663 81.6127 90.2045 85.3114 88.6528 87.1365C87.2378 88.8004 84.924 88.9092 77.2388 88.4096C73.8771 88.1906 69.7754 87.9367 64.7732 87.43M58.3398 109.888C60.0405 110.179 61.8243 110.376 63.7052 110.443C84.5092 111.214 105.352 98.6404 109.865 91.9653M94.5252 92.8749C98.8017 88.818 101.81 84.7699 100.864 82.8537C100.251 81.6096 97.9294 81.1865 96.4611 81.2666C93.7834 81.4121 92.0481 83.3237 91.6022 83.8446C88.4751 87.6749 85.017 90.9804 81.0878 93.3942M94.5252 92.8749C94.5252 92.8749 105.087 85.4869 109.496 87.9632M81.0878 93.3942C77.1 95.844 72.6269 97.3754 67.5218 97.6049C60.311 97.7753 55.076 93.0927 50.8854 87.6875C50.7408 87.5011 50.5839 87.3257 50.4078 87.1688C49.185 86.0798 46.7541 84.2482 43.1995 83.5653C37.0657 82.3738 32.3361 85.5109 31.3734 86.1802M81.0878 93.3942C77.0612 92.927 72.4769 91.7681 69.0851 90.6736C67.565 90.183 66.0512 88.884 64.7732 87.43M81.0878 93.3942C81.1284 93.3989 81.1691 93.4036 81.2096 93.4082M64.7732 87.43C63.1709 85.6069 61.9394 83.5402 61.5307 82.5177M109.865 91.9653C110.579 90.9092 110.884 90.0008 110.716 89.3162C110.586 88.8024 110.203 88.4784 109.956 88.2766C109.812 88.1583 109.658 88.0541 109.496 87.9632M109.865 91.9653C110.165 91.7892 113.744 89.7532 116.475 91.4831C116.659 91.5977 118.471 92.7832 118.368 94.3319C118.292 95.5577 117.041 96.5733 115.113 97.5185C108.853 100.566 88.3159 106.261 84.9995 107.176M109.865 91.9653C109.86 91.9683 109.856 91.9708 109.852 91.9726M109.496 87.9632C111.025 86.8891 112.974 86.9205 114.214 87.9574C115.512 89.0361 115.475 90.7367 115.47 90.9639M109.496 87.9632C109.493 87.9654 109.49 87.9675 109.487 87.9696M101.497 16.4668C101.565 18.9529 101.729 19.9513 102.679 21.242C103.051 21.7471 103.051 22.4365 102.679 22.9415C101.729 24.2322 101.565 25.2307 101.497 27.7168C101.429 25.2307 101.265 24.2322 100.315 22.9415C99.9429 22.4365 99.9429 21.7471 100.315 21.242C101.265 19.9513 101.429 18.9529 101.497 16.4668ZM26.4969 41.4668C26.565 43.9529 26.7288 44.9513 27.6791 46.242C28.0509 46.7471 28.0509 47.4365 27.6791 47.9415C26.7288 49.2322 26.565 50.2307 26.4969 52.7168C26.4289 50.2307 26.265 49.2322 25.3147 47.9415C24.9429 47.4365 24.9429 46.7471 25.3147 46.242C26.265 44.9513 26.4289 43.9529 26.4969 41.4668Z" stroke="#333333" stroke-width="1.42569" stroke-miterlimit="10" stroke-linecap="round" stroke-linejoin="round"/>
<path d="M108.927 32.4906C107.977 31.1999 107.813 30.2014 107.745 27.7153C107.677 30.2014 107.513 31.1999 106.563 32.4906C106.191 32.9956 106.191 33.685 106.563 34.1901C107.513 35.4808 107.677 36.4792 107.745 38.9653C107.813 36.4792 107.977 35.4808 108.927 34.1901C109.299 33.685 109.299 32.9956 108.927 32.4906Z" fill="#F75900"/>
<path d="M36.1962 25.3323C34.9292 23.6114 34.7107 22.2801 34.62 18.9653C34.5292 22.2801 34.3107 23.6114 33.0437 25.3323C32.5479 26.0057 32.5479 26.9249 33.0437 27.5983C34.3107 29.3193 34.5292 30.6505 34.62 33.9653C34.7107 30.6505 34.9292 29.3193 36.1962 27.5983C36.692 26.9249 36.692 26.0057 36.1962 25.3323Z" fill="#F75900"/>
<path d="M82.3835 50.625L66.7184 2.80533C66.4498 1.98546 65.29 1.98546 65.0214 2.80533L49.3564 50.625C49.0936 51.427 49.4283 52.3035 50.1586 52.7263L64.9752 61.3044C65.5287 61.6248 66.2112 61.6248 66.7646 61.3044L81.5812 52.7263C82.3116 52.3035 82.6462 51.427 82.3835 50.625Z" fill="#F75900"/>
<path d="M66.7646 67.5544L75.4922 62.5015C77.1642 61.5335 78.9686 63.5407 77.8287 65.1005L67.3117 79.4922C66.5984 80.4684 65.1415 80.4684 64.4282 79.4922L53.9111 65.1005C52.7712 63.5407 54.5756 61.5335 56.2476 62.5015L64.9752 67.5544C65.5287 67.8748 66.2112 67.8748 66.7646 67.5544Z" fill="#F75900"/>
<path d="M65.8703 79.679V68.9647M65.8703 60.0361V43.0718M65.8703 43.0718V3.78613M65.8703 43.0718L81.0488 51.1076M65.8703 43.0718L50.6917 51.1076" stroke="#333333" stroke-width="1.42569" stroke-linecap="round" stroke-linejoin="round"/>
</svg>
