<svg width="121" height="121" viewBox="0 0 121 121" fill="none" xmlns="http://www.w3.org/2000/svg">
<path d="M68.3387 109.411L68.3015 110.123L68.3387 109.411ZM47.2765 96.2372L47.7835 95.7361L47.783 95.7356L47.2765 96.2372ZM40.1488 87.4723L40.7411 87.0758L40.1488 87.4723ZM36.5944 77.4933L37.1486 77.9417L37.1488 77.9414L36.5944 77.4933ZM40.7433 76.9757L40.5488 77.6615L40.549 77.6615L40.7433 76.9757ZM44.4709 80.1772L45.1088 79.8589C45.1063 79.854 45.1038 79.8491 45.1012 79.8442L44.4709 80.1772ZM62.7513 96.9018L62.5634 97.5894C62.5683 97.5908 62.5732 97.5921 62.5781 97.5933L62.7513 96.9018ZM79.1986 91.5291L79.652 92.0791L79.1986 91.5291ZM79.7167 91.171L79.3713 90.5474H79.3713L79.7167 91.171ZM86.7067 89.4474L86.6838 90.1599L86.6853 90.1599L86.7067 89.4474ZM95.9729 94.5321C96.2388 94.8224 96.6897 94.8423 96.98 94.5764C97.2704 94.3105 97.2902 93.8596 97.0244 93.5693L95.9729 94.5321ZM67.1465 88.575L67.5653 89.1519L67.1465 88.575ZM56.0908 86.9786L55.9794 87.6827L55.9795 87.6827L56.0908 86.9786ZM46.3942 83.6257L45.7628 83.9566L45.7629 83.9567L46.3942 83.6257ZM48.0713 77.9198L47.9703 77.2141V77.2141L48.0713 77.9198ZM85.0136 81.7701L85.236 81.0928L85.2359 81.0928L85.0136 81.7701ZM118.131 104.055L118.661 103.578L118.131 104.055ZM118.996 106.51L119.706 106.578L118.996 106.51ZM116.893 112.711L117.494 113.095L117.494 113.095L116.893 112.711ZM108.764 118.636L108.558 117.954L108.764 118.636ZM104.769 116.574L105.403 116.249L104.769 116.574ZM99.4314 110.051L99.8624 109.483L99.8619 109.482L99.4314 110.051ZM63.554 108.84L63.6858 108.139L63.685 108.139L63.554 108.84ZM26.7388 81.1887L26.1033 80.8656L26.1009 80.8704L26.7388 81.1887ZM27.6051 80.4321L27.9244 81.0694H27.9244L27.6051 80.4321ZM71.5252 85.3352C71.7482 85.0107 71.6659 84.567 71.3414 84.344C71.0169 84.121 70.5732 84.2033 70.3502 84.5278L71.5252 85.3352ZM62.7513 90.5542L62.6871 89.8442L62.7513 90.5542ZM51.7257 89.8456C51.3344 89.8026 50.9823 90.085 50.9393 90.4763C50.8963 90.8676 51.1787 91.2197 51.57 91.2627L51.7257 89.8456ZM45.3029 102.436C45.6501 102.622 46.082 102.491 46.2677 102.144C46.4533 101.797 46.3224 101.365 45.9753 101.179L45.3029 102.436ZM21.2943 87.4723L20.8474 88.0276L20.8489 88.0289L21.2943 87.4723ZM19.0848 84.0557L19.7885 84.1693L19.789 84.1661L19.0848 84.0557ZM21.2943 81.9452L21.5289 82.6184L21.534 82.6166L21.2943 81.9452ZM26.4792 84.1912C26.7652 84.4618 27.2163 84.4494 27.4869 84.1634C27.7575 83.8775 27.7451 83.4263 27.4592 83.1557L26.4792 84.1912ZM21.573 81.5507C21.4959 81.9368 21.7464 82.3123 22.1325 82.3893C22.5186 82.4664 22.894 82.2159 22.9711 81.8298L21.573 81.5507ZM23.957 79.317L24.2808 79.952L24.2826 79.9511L23.957 79.317ZM27.5448 80.7342C27.8085 81.0265 28.2593 81.0497 28.5516 80.786C28.8439 80.5223 28.8671 80.0716 28.6034 79.7792L27.5448 80.7342ZM58.7785 51.0847C58.7785 50.691 58.4593 50.3719 58.0656 50.3719C57.6719 50.3719 57.3528 50.691 57.3528 51.0847H58.7785ZM74.5763 51.0847C74.5763 50.691 74.2572 50.3719 73.8635 50.3719C73.4698 50.3719 73.1506 50.691 73.1506 51.0847H74.5763ZM39.6788 53.175C40.0401 53.0184 40.206 52.5987 40.0495 52.2374C39.8929 51.8762 39.4732 51.7103 39.112 51.8668L39.6788 53.175ZM17.5694 61.2019C17.2082 61.3584 17.0422 61.7782 17.1988 62.1394C17.3553 62.5007 17.775 62.6666 18.1363 62.5101L17.5694 61.2019ZM34.1959 43.1593C34.5779 43.2547 34.9649 43.0225 35.0604 42.6406C35.1559 42.2586 34.9236 41.8716 34.5417 41.7761L34.1959 43.1593ZM17.3077 37.4676C16.9257 37.3721 16.5387 37.6044 16.4432 37.9863C16.3477 38.3682 16.5799 38.7553 16.9619 38.8507L17.3077 37.4676ZM91.381 51.8668C91.0197 51.7103 90.6 51.8762 90.4435 52.2374C90.2869 52.5987 90.4529 53.0184 90.8141 53.175L91.381 51.8668ZM112.357 62.5101C112.718 62.6666 113.138 62.5007 113.294 62.1394C113.451 61.7782 113.285 61.3584 112.924 61.2019L112.357 62.5101ZM95.9512 41.7761C95.5693 41.8716 95.3371 42.2586 95.4326 42.6406C95.528 43.0225 95.9151 43.2547 96.297 43.1593L95.9512 41.7761ZM113.531 38.8507C113.913 38.7553 114.145 38.3682 114.05 37.9863C113.954 37.6044 113.567 37.3721 113.185 37.4676L113.531 38.8507ZM68.619 108.755C55.5814 103.18 51.6946 99.6942 47.7835 95.7361L46.7694 96.7382C50.8223 100.84 54.8676 104.426 68.0585 110.066L68.619 108.755ZM47.783 95.7356C45.3399 93.2681 42.7714 90.1087 40.7411 87.0758L39.5564 87.8689C41.6344 90.973 44.2597 94.2035 46.7699 96.7387L47.783 95.7356ZM40.7411 87.0758C39.2907 84.9091 38.1343 82.8357 37.4888 81.1442C37.1653 80.2965 36.9834 79.5784 36.9423 79.0117C36.9006 78.4363 37.0097 78.1134 37.1486 77.9417L36.0402 77.045C35.5788 77.6153 35.4659 78.3638 35.5203 79.1148C35.5754 79.8745 35.8078 80.7379 36.1568 81.6525C36.8563 83.4855 38.0774 85.6595 39.5564 87.8689L40.7411 87.0758ZM37.1488 77.9414C37.3449 77.6989 37.8066 77.5 38.5359 77.4499C39.2282 77.4023 39.9883 77.5025 40.5488 77.6615L40.9378 76.2899C40.2346 76.0904 39.3097 75.9676 38.4381 76.0276C37.6037 76.0849 36.6229 76.3241 36.04 77.0452L37.1488 77.9414ZM40.549 77.6615C42.551 78.2287 43.5676 79.9935 43.8406 80.5102L45.1012 79.8442C44.802 79.2779 43.5455 77.0287 40.9376 76.2898L40.549 77.6615ZM43.8331 80.4955C45.8293 84.4961 48.2362 88.129 51.2592 91.0764L52.2545 90.0555C49.378 87.2512 47.0571 83.7635 45.1088 79.8589L43.8331 80.4955ZM51.2592 91.0764C54.3321 94.0722 58.0336 96.3515 62.5634 97.5894L62.9393 96.2142C58.6617 95.0452 55.1689 92.897 52.2545 90.0555L51.2592 91.0764ZM62.5781 97.5933C69.1757 99.246 74.8986 95.998 79.652 92.0791L78.7451 90.9791C74.0698 94.8336 68.8279 97.6891 62.9246 96.2103L62.5781 97.5933ZM80.0621 91.7946C81.2811 91.1194 83.6289 90.0621 86.6838 90.1599L86.7295 88.7349C83.3205 88.6258 80.7116 89.8051 79.3713 90.5474L80.0621 91.7946ZM86.6853 90.1599C91.9617 90.3181 95.2944 93.7911 95.9729 94.5321L97.0244 93.5693C96.2881 92.7652 92.6106 88.9112 86.728 88.7349L86.6853 90.1599ZM67.2325 87.8674C62.7883 87.3276 59.1764 86.7446 56.2021 86.2745L55.9795 87.6827C58.9503 88.1523 62.587 88.7393 67.0606 89.2827L67.2325 87.8674ZM56.2022 86.2745C52.7915 85.7349 50.6548 85.3365 49.2596 84.8709C47.9015 84.4175 47.3635 83.9393 47.0256 83.2947L45.7629 83.9567C46.331 85.0403 47.2435 85.7009 48.8083 86.2232C50.336 86.7331 52.5946 87.1471 55.9794 87.6827L56.2022 86.2745ZM47.0256 83.2948C46.5911 82.4658 46.3539 81.2966 46.5196 80.3319C46.6008 79.8587 46.7723 79.4711 47.0256 79.1898C47.2708 78.9176 47.6293 78.7032 48.1723 78.6254L47.9703 77.2141C47.1224 77.3355 46.4516 77.6969 45.9663 78.2357C45.4892 78.7654 45.2289 79.4241 45.1144 80.0906C44.8887 81.4055 45.2039 82.8902 45.7628 83.9566L47.0256 83.2948ZM48.1723 78.6254C50.8876 78.2367 68.0877 76.9656 84.7914 82.4474L85.2359 81.0928C68.2559 75.5204 50.8185 76.8064 47.9703 77.2141L48.1723 78.6254ZM84.7913 82.4474C100.747 87.6846 111.827 98.128 117.602 104.533L118.661 103.578C112.809 97.0874 101.528 86.4405 85.236 81.0928L84.7913 82.4474ZM118.287 106.443C118.139 107.995 117.673 110.167 116.293 112.327L117.494 113.095C119.031 110.69 119.544 108.282 119.706 106.578L118.287 106.443ZM116.293 112.327C114.138 115.696 110.902 117.245 108.558 117.954L108.97 119.318C111.495 118.555 115.088 116.857 117.494 113.095L116.293 112.327ZM105.403 116.249C104.242 113.981 102.501 111.486 99.8624 109.483L99.0003 110.618C101.424 112.458 103.041 114.764 104.135 116.899L105.403 116.249ZM99.8619 109.482C95.307 106.031 90.5919 106.076 85.4937 106.829C80.3602 107.588 74.886 109.04 68.376 108.699L68.3015 110.123C75.001 110.473 80.7521 108.971 85.7021 108.24C90.6874 107.503 94.9138 107.522 99.0008 110.619L99.8619 109.482ZM68.376 108.699C66.8665 108.62 65.3051 108.444 63.6858 108.139L63.4222 109.541C65.1076 109.858 66.7324 110.041 68.3015 110.123L68.376 108.699ZM63.685 108.139C54.6857 106.457 46.2943 101.902 39.8189 96.9198C36.5842 94.431 33.8397 91.8447 31.7469 89.4742C29.6437 87.0918 28.2344 84.9673 27.6236 83.405L26.2958 83.9241C26.9955 85.7138 28.5306 87.9852 30.6781 90.4177C32.8361 92.8621 35.6485 95.5099 38.9496 98.0497C45.5458 103.125 54.1411 107.806 63.423 109.541L63.685 108.139ZM27.6236 83.405C27.2224 82.3786 27.2392 81.7825 27.3766 81.507L26.1009 80.8704C25.676 81.722 25.8678 82.8292 26.2958 83.9241L27.6236 83.405ZM27.3742 81.5118C27.4723 81.3188 27.6662 81.1988 27.9244 81.0694L27.2858 79.7948C27.0353 79.9203 26.4344 80.2144 26.1033 80.8656L27.3742 81.5118ZM27.9244 81.0694C28.0353 81.0139 28.1508 80.9684 28.2712 80.9325L27.8637 79.5663C27.6662 79.6252 27.4732 79.7009 27.2858 79.7948L27.9244 81.0694ZM28.2712 80.9325C29.102 80.6847 30.1991 80.8877 31.4829 81.4804C32.7455 82.0633 34.0699 82.968 35.2886 83.935C36.5028 84.8984 37.588 85.9044 38.3711 86.6714C38.7621 87.0544 39.0764 87.3764 39.2923 87.6019C39.4002 87.7146 39.4834 87.8032 39.5392 87.8631C39.5671 87.893 39.5882 87.9158 39.602 87.9308C39.609 87.9383 39.6141 87.9439 39.6174 87.9475C39.619 87.9493 39.6202 87.9506 39.6209 87.9514C39.6213 87.9518 39.6215 87.9521 39.6216 87.9522C39.6217 87.9523 39.6217 87.9523 39.6217 87.9523C39.6217 87.9523 39.6217 87.9522 40.1488 87.4723C40.6759 86.9924 40.6758 86.9923 40.6756 86.9921C40.6755 86.992 40.6754 86.9918 40.6752 86.9917C40.6748 86.9913 40.6744 86.9908 40.6738 86.9901C40.6726 86.9889 40.671 86.9871 40.6689 86.9848C40.6647 86.9802 40.6586 86.9736 40.6508 86.965C40.635 86.9479 40.612 86.9231 40.5821 86.891C40.5223 86.8268 40.4347 86.7336 40.3222 86.6161C40.0972 86.381 39.7721 86.048 39.3687 85.6529C38.5631 84.8639 37.4398 83.8219 36.1748 82.8182C34.9144 81.8181 33.4891 80.8363 32.0805 80.186C30.6932 79.5455 29.1977 79.1684 27.8637 79.5663L28.2712 80.9325ZM70.3502 84.5278C69.8491 85.2571 68.4327 86.7604 66.7277 87.9981L67.5653 89.1519C69.3696 87.8421 70.9121 86.2275 71.5252 85.3352L70.3502 84.5278ZM66.7277 87.9981C65.3579 88.9926 63.9122 89.7333 62.6871 89.8442L62.8156 91.2641C64.4328 91.1177 66.1362 90.1893 67.5653 89.1519L66.7277 87.9981ZM62.6871 89.8442C59.5463 90.1286 55.3729 90.2349 51.8325 89.8571L51.6812 91.2748C55.3424 91.6654 59.6145 91.554 62.8156 91.2641L62.6871 89.8442ZM51.8325 89.8571C51.7968 89.8533 51.7613 89.8495 51.7257 89.8456L51.57 91.2627C51.607 91.2668 51.6441 91.2708 51.6812 91.2748L51.8325 89.8571ZM45.9753 101.179C44.6216 100.455 39.7557 97.8462 34.6232 94.9339C29.4687 92.009 24.1146 88.8164 21.7397 86.9158L20.8489 88.0289C23.3303 90.0147 28.7934 93.265 33.9196 96.1739C39.0679 99.0952 43.9463 101.711 45.3029 102.436L45.9753 101.179ZM21.7412 86.917C21.0171 86.3342 20.4828 85.8021 20.1526 85.3177C19.8245 84.8364 19.7404 84.467 19.7885 84.1693L18.381 83.9421C18.2542 84.7276 18.5278 85.4652 18.9746 86.1207C19.4194 86.7732 20.0773 87.4079 20.8474 88.0276L21.7412 86.917ZM19.789 84.1661C19.851 83.7701 20.1618 83.4055 20.6075 83.0966C21.0362 82.7994 21.4681 82.6396 21.5289 82.6184L21.0597 81.2721C20.9377 81.3146 20.3721 81.5251 19.7954 81.9248C19.2357 82.3127 18.5331 82.9715 18.3805 83.9454L19.789 84.1661ZM21.534 82.6166C22.6302 82.2252 23.7734 82.5134 24.7426 82.9986C25.7028 83.4792 26.3816 84.0997 26.4724 84.1848L27.447 83.1443C27.3111 83.0169 26.5168 82.2924 25.3808 81.7237C24.2538 81.1596 22.6777 80.6944 21.0546 81.2739L21.534 82.6166ZM26.4724 84.1848C26.4753 84.1875 26.4776 84.1897 26.4792 84.1912L27.4592 83.1557C27.456 83.1527 27.4519 83.1488 27.447 83.1443L26.4724 84.1848ZM22.9711 81.8298C23.0101 81.6344 23.2649 80.4701 24.2808 79.952L23.6332 78.6819C21.9627 79.5337 21.6135 81.348 21.573 81.5507L22.9711 81.8298ZM24.2826 79.9511C25.2413 79.459 26.6039 79.6962 27.5393 80.7281L28.5956 79.7706C27.2895 78.3297 25.2429 77.8555 23.6315 78.6828L24.2826 79.9511ZM27.5393 80.7281C27.5411 80.7301 27.543 80.7322 27.5448 80.7342L28.6034 79.7792C28.6008 79.7764 28.5982 79.7735 28.5956 79.7707L27.5393 80.7281ZM117.602 104.533C118.096 105.081 118.351 105.767 118.287 106.443L119.706 106.578C119.814 105.447 119.382 104.378 118.661 103.578L117.602 104.533ZM108.558 117.954C107.37 118.312 106.087 117.584 105.403 116.249L104.135 116.899C105.007 118.602 106.89 119.947 108.97 119.318L108.558 117.954ZM79.652 92.0791C79.7892 91.966 79.9244 91.8709 80.0621 91.7946L79.3713 90.5474C79.1404 90.6753 78.9331 90.8241 78.7451 90.9791L79.652 92.0791ZM57.3528 51.0847V57.5475H58.7785V51.0847H57.3528ZM57.3528 57.5475V61.856H58.7785V57.5475H57.3528ZM63.8103 68.3135H68.1188V66.8878H63.8103V68.3135ZM74.5763 61.856V57.5475H73.1506V61.856H74.5763ZM74.5763 57.5475V51.0847H73.1506V57.5475H74.5763ZM58.0656 62.5688L73.8635 62.5688V61.1431L58.0656 61.1431V62.5688ZM58.0656 58.2603H73.8635V56.8346H58.0656V58.2603ZM68.1188 68.3135C71.6852 68.3135 74.5763 65.4224 74.5763 61.856H73.1506C73.1506 64.635 70.8978 66.8878 68.1188 66.8878V68.3135ZM57.3528 61.856C57.3528 65.4224 60.2439 68.3135 63.8103 68.3135V66.8878C61.0313 66.8878 58.7785 64.635 58.7785 61.856H57.3528ZM39.112 51.8668L17.5694 61.2019L18.1363 62.5101L39.6788 53.175L39.112 51.8668ZM34.5417 41.7761L17.3077 37.4676L16.9619 38.8507L34.1959 43.1593L34.5417 41.7761ZM90.8141 53.175L112.357 62.5101L112.924 61.2019L91.381 51.8668L90.8141 53.175ZM96.297 43.1593L113.531 38.8507L113.185 37.4676L95.9512 41.7761L96.297 43.1593Z" fill="#333333"/>
<path d="M65.9657 0.100586C52.4817 0.100586 41.5508 11.0315 41.5508 24.5155C41.5508 31.7116 44.6641 38.1806 49.6172 42.649C50.4358 43.3875 51.2335 44.1529 51.9219 45.014L55.7193 49.7644C56.4306 50.6543 56.9235 51.6894 57.1691 52.7873C57.3666 53.6702 58.082 54.4122 58.9867 54.4122H72.9447C73.8493 54.4122 74.5647 53.6702 74.7622 52.7873C75.0078 51.6894 75.5007 50.6543 76.2121 49.7644L80.0094 45.014C80.6978 44.1529 81.4955 43.3875 82.3141 42.649C87.2673 38.1806 90.3806 31.7116 90.3806 24.5155C90.3806 11.0315 79.4496 0.100586 65.9657 0.100586Z" fill="#F75900"/>
<path d="M61.6548 45.3391L51.6016 24.5146M70.2718 45.3391L80.325 24.5146" stroke="white" stroke-width="1.42569" stroke-linecap="round" stroke-linejoin="round"/>
<path d="M53.0371 20.2069L57.3456 15.8984L61.6541 20.2069L65.9626 15.8984L70.2712 20.2069L74.5797 15.8984L78.8882 20.2069" stroke="#333333" stroke-width="1.42569" stroke-linecap="round" stroke-linejoin="round"/>
</svg>
