<svg width="121" height="121" viewBox="0 0 121 121" fill="none" xmlns="http://www.w3.org/2000/svg">
<path d="M83.3711 27.5127C84.7518 27.5127 85.8711 28.632 85.8711 30.0127V59.3877C85.8711 59.7319 85.8015 60.0599 85.6756 60.3584C85.1158 58.3682 83.7461 53.7627 82.7461 51.2627C81.7461 48.7627 78.9961 44.3877 77.7461 42.5127C77.3294 42.5127 76.3711 42.7627 75.8711 43.7627C75.3711 44.7627 77.7461 55.4294 78.9961 60.6377L77.1211 61.8877H37.1211C35.7404 61.8877 34.6211 60.7684 34.6211 59.3877V30.0127C34.6211 28.632 35.7404 27.5127 37.1211 27.5127H83.3711Z" fill="#F75900"/>
<path d="M76.4961 40.0127V35.0127M73.9961 42.5127H70.2461M78.9961 42.5127H82.7461" stroke="white" stroke-width="1.42569" stroke-linecap="round" stroke-linejoin="round"/>
<path d="M9.06075 81.9386V16.2607C9.06075 14.88 10.18 13.7607 11.5608 13.7607H108.931C110.312 13.7607 111.431 14.88 111.431 16.2607V81.9386M9.06075 81.9386H1.49609C1.15091 81.9386 0.871094 82.2184 0.871094 82.5636V83.7607C0.871094 85.1414 1.99038 86.2607 3.37109 86.2607H19.6211M9.06075 81.9386H21.4961M111.431 81.9386H118.996C119.341 81.9386 119.621 82.2184 119.621 82.5636V83.7607C119.621 85.1414 118.502 86.2607 117.121 86.2607H101.392M111.431 81.9386H100.347M53.0164 86.2607H75.2558M41.4961 86.2607H45.8711M47.7461 78.7607H47.1211M52.1211 78.7607H69.5928M23.3711 78.7607H15.2461C13.8654 78.7607 12.7461 77.6414 12.7461 76.2607V20.6357C12.7461 19.255 13.8654 18.1357 15.2461 18.1357H105.246C106.627 18.1357 107.746 19.255 107.746 20.6357V76.2607C107.746 77.6414 106.627 78.7607 105.246 78.7607H99.3581M44.6211 81.9386H71.9173M27.8976 75.275C24.386 76.1529 24.0934 77.616 21.4598 82.8833C19.3528 87.0972 16.4961 100.148 2.74609 100.636C0.237098 108.062 6.82769 119.764 10.647 119.754C10.7402 118.22 20.8745 110.976 26.4344 108.927C31.9943 106.879 42.529 103.66 44.5774 100.148C46.6258 96.6369 53.0636 87.2728 53.3562 84.9318C53.6488 82.5908 49.5521 82.5908 47.5037 84.9318C45.4553 87.2728 40.4806 92.8327 39.8953 92.2475C39.3101 91.6622 40.188 88.7359 41.6511 85.8097C42.8216 83.4686 46.0405 79.762 47.5037 78.2014C47.6987 78.3964 48.323 78.9622 49.2594 79.6645C50.43 80.5424 52.4783 79.9571 52.1857 77.6161C51.9441 75.6828 49.108 73.3504 47.1385 72.5966M26.4344 77.9087C27.7025 75.5676 30.5897 70.71 31.9944 70.0077C33.399 69.3054 35.3317 69.0457 36.1121 69.1432M36.1121 69.1432C35.0321 70.4691 33.9522 72.2999 32.8722 73.8118C31.7017 75.4505 30.8711 77.5107 30.8711 77.5107M36.1121 69.1432C36.4953 68.6727 36.8785 68.2658 37.2617 67.9593C38.7248 66.7888 45.7478 67.9593 48.0889 70.8856C49.0856 72.1314 48.3849 72.5286 47.1385 72.5966M47.1385 72.5966C46.7231 72.4376 46.3463 72.3488 46.0405 72.3488C45.8209 72.3488 45.5363 72.4156 45.2054 72.5336M45.2054 72.5336C43.8613 72.4226 42.5002 72.2375 41.9437 72.3488C40.7732 72.5829 39.3101 75.1775 38.7249 76.4456C40.2883 75.2936 43.4206 73.1697 45.2054 72.5336ZM29.6211 72.6673V22.5107H90.8711V66.0396M35.8711 60.0107L40.6633 51.9682C41.0893 51.2865 42.0388 51.1784 42.6072 51.7468L45.4179 54.5576C45.9757 55.1153 46.9043 55.0234 47.3419 54.3671L51.5513 48.053C52.0837 47.2544 53.2801 47.3289 53.7094 48.1873L55.4406 51.6498C55.8893 52.5471 57.1591 52.5769 57.6493 51.7015L64.2793 39.8622C64.7099 39.0932 65.8107 39.0768 66.2641 39.8325C66.6777 40.5218 67.6535 40.5831 68.1501 39.951L73.6207 32.9885C73.8577 32.6869 74.2201 32.5107 74.6036 32.5107H79.2205C79.481 32.5107 79.7351 32.4293 79.9471 32.2779L83.9961 29.3857M35.8711 64.3857H63.3711M39.6211 67.5107H66.2641M47.7461 70.6357H60.2461M72.5359 72.4928C70.8399 68.2028 66.3252 69.1151 67.2429 72.3271C68.1606 75.539 68.4312 77.183 69.9879 79.3392C71.5446 81.4954 75.3577 86.5159 78.7248 90.5454C82.092 94.575 89.0064 98.31 92.5488 101.686L94.9648 109.631C95.1641 110.286 95.7332 110.768 96.4197 110.851C103.292 111.687 108.831 111.492 113.954 107.882C114.762 107.313 114.835 106.179 114.179 105.444C110.973 101.86 102.44 92.1932 102.198 90.589C101.824 88.1032 100.218 79.4705 97.9385 75.553C97.8286 75.364 97.7629 75.1554 97.7325 74.9393C97.5862 73.8993 97.0259 72.1541 95.643 71.0888C95.3051 70.8285 95.0468 70.4609 94.8381 70.0906C93.7281 68.1208 89.0806 64.5953 86.5902 62.5388C86.4003 62.382 86.2621 62.1798 86.1848 61.9471C84.0074 55.3971 79.4478 42.8856 77.7156 42.5684C75.7055 42.2002 74.0951 43.0992 79.3255 60.4679M72.5359 72.4928C72.4225 71.5892 72.3445 69.2268 72.9401 67.0062C73.5357 64.7856 77.4452 61.7221 79.3255 60.4679M72.5359 72.4928C72.7261 72.9737 72.9426 73.4395 73.1796 73.8851M79.3255 60.4679C79.8317 62.1486 80.4019 63.9836 81.042 65.9866M81.042 65.9866C80.1581 66.6285 78.1312 68.6133 77.0945 71.4171C76.658 72.5976 76.0499 73.2828 75.4268 73.6548M81.042 65.9866C81.442 67.4251 81.5937 69.362 81.5197 71.2828M73.1796 73.8851C75.0571 77.4146 78.2223 79.6727 79.761 78.0591C80.798 76.9716 81.4094 74.1451 81.5197 71.2828M73.1796 73.8851C73.685 74.0852 74.57 74.1662 75.4268 73.6548M75.4268 73.6548C75.0607 74.3564 74.6365 75.8054 75.8683 75.9889C76.7388 76.1185 77.6793 75.9872 78.5033 75.4513M81.5197 71.2828C81.3657 71.2665 80.8687 71.6736 80.1123 73.4325C79.7013 74.3881 79.1368 75.0393 78.5033 75.4513M78.5033 75.4513C78.7195 75.9721 79.4542 76.8147 80.6642 76.0184M5.8711 41.2607L3.19253 38.7607M5.8711 45.0107H2.1211M5.8711 48.7607L3.19253 51.2607M114.621 41.2607L117.3 38.7607M114.621 45.0107H118.371M114.621 48.7607L117.3 51.2607" stroke="#333333" stroke-width="1.42569" stroke-linecap="round" stroke-linejoin="round"/>
<path d="M48.373 54.3867C48.373 55.4223 47.5336 56.2617 46.498 56.2617C45.4625 56.2617 44.623 55.4223 44.623 54.3867C44.623 53.3512 45.4625 52.5117 46.498 52.5117C47.5336 52.5117 48.373 53.3512 48.373 54.3867Z" fill="white"/>
<path d="M67.123 39.3867C67.123 40.4223 66.2836 41.2617 65.248 41.2617C64.2125 41.2617 63.373 40.4223 63.373 39.3867C63.373 38.3512 64.2125 37.5117 65.248 37.5117C66.2836 37.5117 67.123 38.3512 67.123 39.3867Z" fill="white"/>
</svg>
