<svg width="121" height="121" viewBox="0 0 121 121" fill="none" xmlns="http://www.w3.org/2000/svg">
<path d="M7.92052 60.0391C9.29634 58.3866 9.52585 57.1869 9.61944 54.0527C9.71303 57.1869 9.94254 58.3866 11.3184 60.0391C11.7462 60.5531 11.7462 61.3024 11.3184 61.8163C9.94254 63.4689 9.71303 64.6686 9.61944 67.8027C9.52585 64.6686 9.29634 63.4689 7.92052 61.8163C7.49264 61.3024 7.49264 60.5531 7.92052 60.0391Z" fill="#F75900"/>
<path d="M91.6705 108.789C93.0463 107.137 93.2758 105.937 93.3694 102.803C93.463 105.937 93.6925 107.137 95.0684 108.789C95.4962 109.303 95.4962 110.052 95.0684 110.566C93.6925 112.219 93.463 113.419 93.3694 116.553C93.2758 113.419 93.0463 112.219 91.6705 110.566C91.2426 110.052 91.2426 109.303 91.6705 108.789Z" fill="#F75900"/>
<path d="M66.4944 96.5527C91.6924 96.5527 112.119 76.1257 112.119 50.9277C112.119 25.7297 91.6924 5.30273 66.4944 5.30273C41.2964 5.30273 20.8694 25.7297 20.8694 50.9277C20.8694 51.7665 20.8921 52.6001 20.9368 53.4277C23.4143 49.4694 28.9944 40.6777 31.4944 37.1777C33.9944 33.6777 40.0361 25.3027 42.7444 21.5527C44.4111 19.8861 47.8694 16.5527 48.3694 16.5527C48.9944 16.5527 50.2444 16.5527 50.8694 17.1777C51.3694 17.6777 51.9111 19.4694 52.1194 20.3027C52.9528 20.7194 54.6194 21.8027 54.6194 22.8027C54.6194 23.8027 53.3694 25.7194 52.7444 26.5527C52.5361 27.5944 51.8694 30.0527 50.8694 31.5527C49.8694 33.0527 46.7028 35.9277 45.2444 37.1777C47.7444 36.3444 52.9944 34.8027 53.9944 35.3027C55.2444 35.9277 55.2444 38.4277 54.6194 40.3027C54.1194 41.8027 51.4944 43.8444 50.2444 44.6777V45.3027C50.6611 45.3027 51.6194 45.5527 52.1194 46.5527C52.6194 47.5527 52.3278 52.8027 52.1194 55.3027L49.6194 69.0527C48.7861 72.3861 46.7444 80.0527 45.2444 84.0527C43.7444 88.0527 42.7218 89.4694 42.3979 89.6777C49.3905 94.0353 57.6485 96.5527 66.4944 96.5527Z" fill="#F75900"/>
<path d="M37.7444 62.8027L38.9944 65.9277C40.0361 62.8027 42.1194 56.4277 42.1194 55.9277C42.1194 55.4277 44.2028 49.4694 45.2444 46.5527L38.9944 50.3027L37.7444 62.8027Z" fill="#F75900"/>
<path d="M17.0178 65.4577C24.5812 52.3135 28.8 48.567 33.5391 44.865C36.4814 42.5619 40.167 40.218 43.6506 38.4313M17.0178 65.4577C14.6031 79.3134 20.3484 89.8867 12.3702 98.1939C10.0293 100.627 7.29557 102.1 4.84029 103.017C3.14638 103.649 1.85578 105.191 2.16515 106.977C2.62609 109.637 3.89381 113.443 7.34505 116.293C9.55342 118.116 11.895 118.918 13.584 119.283C14.5216 119.486 15.4863 119.233 16.2717 118.675C23.7827 113.341 36.2812 102.851 43.8984 86.4908C51.8536 69.4024 52.7264 50.9651 52.6642 47.9797C52.6019 44.9942 49.006 44.6877 46.8894 45.5008C44.9596 46.2423 44.1276 48.2796 42.1301 55.3181C41.2567 58.397 40.1792 62.1495 39.0405 66.7882M17.0178 65.4577C17.2992 63.8432 17.6914 62.1841 18.229 60.4788C24.154 41.6091 41.9619 26.9177 49.334 24.9845M43.6506 38.4313C48.6184 35.8832 53.1754 34.4682 54.5795 35.9198C55.4914 36.8616 55.1301 39.0736 54.5923 40.3629C53.612 42.7144 51.3601 43.6646 50.7551 43.8993C46.354 45.4898 42.3147 47.5424 38.9189 50.2983M43.6506 38.4313C43.6506 38.4313 53.5788 31.3078 52.7771 26.5779M38.9189 50.2983C35.4724 53.0952 32.6888 56.6166 30.8625 61.1149C28.4196 67.5172 30.9218 73.6825 34.3986 79.141C34.5185 79.3293 34.6246 79.5252 34.7082 79.7324C35.2885 81.171 36.1454 83.9257 35.6234 87.3238C34.7343 93.1918 30.4407 96.4359 29.5394 97.0865M38.9189 50.2983C38.0551 54.0509 37.6293 58.5212 37.5252 61.9035C37.4786 63.4194 38.1531 65.1849 39.0405 66.7882M39.0405 66.7882C40.1532 68.7983 41.6003 70.5534 42.3801 71.2421M49.334 24.9845C50.5004 24.6786 51.4055 24.6921 51.9611 25.0589C52.3767 25.3378 52.5432 25.7829 52.6444 26.0672C52.7038 26.2339 52.7476 26.4043 52.7771 26.5779M49.334 24.9845C49.586 24.7715 52.5346 22.2093 51.8632 19.2187C51.8197 19.0178 51.3409 17.0212 49.9305 16.6245C48.816 16.3054 47.5151 17.1044 46.0618 18.532C41.3613 23.1745 29.7695 39.7644 27.9014 42.4448M49.334 24.9845C49.3297 24.9881 49.3262 24.9911 49.3235 24.9933M52.7771 26.5779C54.2182 25.5486 54.8096 23.7937 54.2814 22.3555C53.7343 20.8528 52.2097 20.349 52.0058 20.2823M52.7771 26.5779C52.7742 26.5799 52.7714 26.582 52.7685 26.584M62.1191 38.6875L68.0383 32.7683V47.9889M62.1191 58.136L68.0383 52.2169V67.4375M72.2662 58.136L78.1853 52.2169V67.4375M82.4132 58.136L88.3324 52.2169V67.4375M92.5603 58.136L98.4794 52.2169V67.4375M102.707 58.136L108.626 52.2169V67.4375M112.854 58.136L118.774 52.2169V67.4375M82.4132 19.2389L88.3324 13.3198V28.5404M82.4132 38.6875L88.3324 32.7683V47.9889M102.707 19.2389L108.626 13.3198V28.5404M15.8691 7.80469C15.7196 12.9639 15.3388 14.7314 12.8951 17.5655C12.4677 18.0611 12.4677 18.7983 12.8951 19.2939C15.3388 22.128 15.7196 23.8954 15.8691 29.0547C16.0187 23.8954 16.3995 22.128 18.8432 19.2939C19.2705 18.7983 19.2705 18.0611 18.8432 17.5655C16.3995 14.7314 16.0187 12.9639 15.8691 7.80469ZM74.803 32.7683H77.3397C78.2737 32.7683 79.0309 33.5255 79.0309 34.4595V46.2978C79.0309 47.2318 78.2737 47.9889 77.3397 47.9889H74.803C73.8689 47.9889 73.1118 47.2318 73.1118 46.2978V34.4595C73.1118 33.5255 73.8689 32.7683 74.803 32.7683ZM95.0971 13.3198H97.6338C98.5679 13.3198 99.325 14.077 99.325 15.011V26.8492C99.325 27.7832 98.5679 28.5404 97.6338 28.5404H95.0971C94.1631 28.5404 93.4059 27.7832 93.4059 26.8492V15.011C93.4059 14.077 94.1631 13.3198 95.0971 13.3198ZM95.0971 32.7683H97.6338C98.5679 32.7683 99.325 33.5255 99.325 34.4595V46.2978C99.325 47.2318 98.5679 47.9889 97.6338 47.9889H95.0971C94.1631 47.9889 93.4059 47.2318 93.4059 46.2978V34.4595C93.4059 33.5255 94.1631 32.7683 95.0971 32.7683ZM115.391 13.3198H117.928C118.862 13.3198 119.619 14.077 119.619 15.011V26.8492C119.619 27.7832 118.862 28.5404 117.928 28.5404H115.391C114.457 28.5404 113.7 27.7832 113.7 26.8492V15.011C113.7 14.077 114.457 13.3198 115.391 13.3198ZM115.391 32.7683H117.928C118.862 32.7683 119.619 33.5255 119.619 34.4595V46.2978C119.619 47.2318 118.862 47.9889 117.928 47.9889H115.391C114.457 47.9889 113.7 47.2318 113.7 46.2978V34.4595C113.7 33.5255 114.457 32.7683 115.391 32.7683ZM106.09 32.7683H108.626C109.56 32.7683 110.318 33.5255 110.318 34.4595V46.2978C110.318 47.2318 109.56 47.9889 108.626 47.9889H106.09C105.156 47.9889 104.399 47.2318 104.399 46.2978V34.4595C104.399 33.5255 105.156 32.7683 106.09 32.7683ZM74.803 14.1654H77.3397C78.2737 14.1654 79.0309 14.9226 79.0309 15.8566V27.6948C79.0309 28.6288 78.2737 29.386 77.3397 29.386H74.803C73.8689 29.386 73.1118 28.6288 73.1118 27.6948V15.8566C73.1118 14.9226 73.8689 14.1654 74.803 14.1654ZM63.8103 14.1654H66.3471C67.2811 14.1654 68.0383 14.9226 68.0383 15.8566V27.6948C68.0383 28.6288 67.2811 29.386 66.3471 29.386H63.8103C62.8763 29.386 62.1191 28.6288 62.1191 27.6948V15.8566C62.1191 14.9226 62.8763 14.1654 63.8103 14.1654ZM67.2662 91.5547C67.1606 95.1965 66.8918 96.4441 65.1668 98.4447C64.8652 98.7945 64.8652 99.3149 65.1668 99.6647C66.8918 101.665 67.1606 102.913 67.2662 106.555C67.3717 102.913 67.6406 101.665 69.3656 99.6647C69.6672 99.3149 69.6672 98.7945 69.3656 98.4447C67.6406 96.4441 67.3717 95.1965 67.2662 91.5547ZM100.244 72.8047C100.063 79.1207 99.5889 81.1159 96.4153 84.7004C96.111 85.0442 96.111 85.5652 96.4153 85.9089C99.5889 89.4935 100.063 91.4887 100.244 97.8047C100.426 91.4887 100.899 89.4935 104.073 85.9089C104.377 85.5652 104.377 85.0442 104.073 84.7004C100.899 81.1159 100.426 79.1207 100.244 72.8047Z" stroke="#333333" stroke-width="1.42569" stroke-linecap="round" stroke-linejoin="round"/>
</svg>
