<svg width="121" height="121" viewBox="0 0 121 121" fill="none" xmlns="http://www.w3.org/2000/svg">
<path d="M22.0407 97.1034C25.1771 96.233 28.074 94.6792 31.216 93.8249C35.8008 92.5754 40.681 92.8691 45.4274 93.355C46.458 93.4618 47.5221 93.5846 48.419 94.0812C49.3159 94.5777 50.0123 95.5496 49.8396 96.5267C49.5499 98.15 47.3271 98.6199 45.6168 98.4276C43.9678 98.2461 42.3411 97.8029 40.6865 97.883C39.032 97.9631 37.2549 98.7373 36.6755 100.222C36.0237 101.888 37.0877 103.725 38.3467 105.033C40.5473 107.302 43.4943 108.899 46.6586 109.529M22.0407 97.1034V86.4326M22.0407 97.1034C18.1216 98.1876 11.5259 96.6963 7.74509 95.6442M46.6586 109.529C47.0875 111.494 47.0207 113.693 45.082 114.452C43.94 114.9 42.6196 114.751 41.4776 114.302M46.6586 109.529H74.0523M41.4776 114.302C40.3356 113.854 39.3328 113.138 38.3467 112.423M41.4776 114.302C40.1796 116.427 37.6727 117.875 33.8566 114.938M30.4304 117.725C29.5057 118.579 28.0461 119.183 26.8093 118.83C25.5782 118.483 24.5253 117.698 23.5894 116.849C21.1827 114.676 17.0993 112.823 14.1968 111.307C11.2203 109.748 7.73621 109.708 4.30155 110.021C2.80678 110.158 1.48167 109.011 1.50419 107.51C1.56316 103.581 1.9217 100.625 3.87868 96.6096C4.4072 95.525 5.67878 95.0455 6.83655 95.3847C7.11631 95.4667 7.42032 95.5538 7.74509 95.6442M28.9854 116.783C29.7319 117.402 31.8144 118.704 33.6037 118.133C34.7748 117.76 36.0014 116.16 36.0014 116.16M77.7732 109.649H81.4942M81.4942 109.649C84.9784 108.713 90.6001 104.643 90.6001 104.643C86.1675 107.356 81.2051 109.169 76.0899 109.94C75.611 110.013 75.076 110.064 74.6786 109.78C74.1284 109.391 74.1182 108.516 74.4799 107.941C74.8417 107.367 75.4581 107.02 76.0491 106.699C79.9059 104.597 83.7577 102.489 87.6145 100.387C83.4825 101.241 79.2589 101.604 75.0454 101.459C73.8227 101.417 72.2331 100.977 72.1923 99.7347C72.1719 99.0408 72.7222 98.4402 73.3539 98.1761C73.9857 97.9121 74.6888 97.9069 75.3664 97.881C81.7299 97.6273 88.2055 95.0073 92.8163 90.5441C89.7849 91.854 86.463 92.4754 83.1717 92.3511C82.3565 92.32 81.3783 92.1233 81.1032 91.3466C80.7211 90.28 81.9846 89.4101 83.024 88.9959C86.0096 87.7998 89.0002 86.6038 91.9858 85.4129L92.0052 85.4052C93.2778 84.9003 94.5708 84.3872 95.9344 84.2893C96.7131 84.2349 97.4794 84.3161 98.2385 84.4724M81.4942 109.649C81.4127 110.462 82.4024 111.262 83.1717 111.505C84.5932 111.956 87.5482 111.488 88.9646 111.012C91.5986 110.132 93.9423 108.376 95.5522 106.078M90.1764 110.536C93.2772 112.124 95.0326 111.048 96.7852 109.671C100.673 106.611 102.731 101.335 107.158 99.1703C110.359 97.6074 114.03 98.0397 117.562 98.8563C118.883 99.1618 120.181 98.3938 120.228 97.0385C120.325 94.2787 119.946 90.4553 119.649 87.9822C119.485 86.613 118.219 85.668 116.849 85.8224C115.873 85.9324 114.673 86.0536 113.37 86.1541M98.2385 84.4724C99.7193 84.7773 101.172 85.3682 102.634 85.796C105.215 86.556 109.699 86.4373 113.37 86.1541M98.2385 84.4724V77.0576M22.0407 86.4326V27.6826C22.0407 26.3019 23.1599 25.1826 24.5407 25.1826H39.0541H92.745H95.7385C97.1192 25.1826 98.2385 26.3019 98.2385 27.6826V77.0576M22.0407 86.4326C19.8284 86.0091 14.9047 84.8741 10.8743 83.2251C9.50463 82.6647 7.87701 83.2458 7.46815 84.668C6.48854 88.0757 5.82081 92.8255 7.74509 95.6442M98.2385 77.0576C100.511 76.8856 105.256 76.4011 108.812 75.6745C110.009 75.4298 111.258 75.99 111.696 77.1313C112.684 79.7119 113.755 83.452 113.37 86.1541" stroke="#333333" stroke-width="1.42569" stroke-miterlimit="10" stroke-linecap="round" stroke-linejoin="round"/>
<path d="M74.7168 56.9268C77.5814 63.1117 74.1309 79.1941 75.6934 84.6629C82.5396 73.607 81.1621 47.9426 78.0371 44.0363C74.9121 40.1299 63.0947 40.306 57.7246 41.6925L61.5658 48.1378C69.3783 49.1795 71.8522 50.742 74.7168 56.9268Z" fill="#F75900"/>
<path d="M48.534 53.9612L49.0582 53.4781L49.0582 53.4781L48.534 53.9612ZM48.4611 55.7263L48.9466 56.2483L48.9466 56.2483L48.4611 55.7263ZM41.4001 62.2935L41.8856 62.8155H41.8856L41.4001 62.2935ZM41.5362 67.6139L41.1214 68.1936H41.1214L41.5362 67.6139ZM44.6458 69.8386L45.0606 69.2589L44.6458 69.8386ZM46.3927 69.8069L46.8293 70.3703L46.3927 69.8069ZM51.3491 65.9654L51.7858 66.5288L51.7858 66.5288L51.3491 65.9654ZM62.1164 61.6993L62.7486 62.0287L62.1164 61.6993ZM64.3865 57.6721C64.4954 57.2937 64.277 56.8987 63.8987 56.7898C63.5204 56.6809 63.1254 56.8993 63.0164 57.2776L64.3865 57.6721ZM53.9184 76.6474L53.5658 76.0279C53.5451 76.0396 53.525 76.0524 53.5056 76.0662L53.9184 76.6474ZM49.3152 87.5275L48.7057 87.8972C48.835 88.1102 49.0661 88.2403 49.3152 88.2403V87.5275ZM77.2558 87.5275V88.2403C77.5291 88.2403 77.7783 88.0841 77.8974 87.8382C78.0165 87.5923 77.9845 87.2999 77.8151 87.0855L77.2558 87.5275ZM61.7484 48.3759L61.6338 49.0795L61.673 49.0859L61.7127 49.0879L61.7484 48.3759ZM54.6172 48.3759L54.53 47.6684L54.6172 48.3759ZM57.7107 42.215L57.1145 42.6057L57.1145 42.6057L57.7107 42.215ZM48.4867 51.7347L48.9156 52.304L48.9156 52.304L48.4867 51.7347ZM52.4333 65.6705L52.3569 66.3793L52.3569 66.3793L52.4333 65.6705ZM58.4605 65.2392L58.202 64.5749L58.4605 65.2392ZM34.2871 42.215L34.739 41.6637C34.4578 41.4332 34.0483 41.4513 33.7885 41.7055C33.5287 41.9598 33.5019 42.3689 33.7262 42.6549L34.2871 42.215ZM55.3809 65.804L55.3561 65.0916L55.3809 65.804ZM47.7478 54.16L48.0098 54.4443L49.0582 53.4781L48.7962 53.1939L47.7478 54.16ZM40.2779 63.2126V66.5836H41.7036V63.2126H40.2779ZM41.1214 68.1936L44.2311 70.4184L45.0606 69.2589L41.951 67.0341L41.1214 68.1936ZM46.8293 70.3703L51.7858 66.5288L50.9124 65.4019L45.956 69.2435L46.8293 70.3703ZM62.7486 62.0287C63.3747 60.8267 63.8959 59.3757 64.3865 57.6721L63.0164 57.2776C62.5378 58.94 62.0475 60.2886 61.4842 61.37L62.7486 62.0287ZM53.5056 76.0662C49.454 78.9435 48.1633 81.8398 47.9703 84.1123C47.8751 85.2324 48.0504 86.1637 48.252 86.819C48.3529 87.1468 48.4608 87.4071 48.5459 87.5895C48.5885 87.6808 48.6255 87.7529 48.6533 87.8045C48.6672 87.8303 48.6789 87.8511 48.6877 87.8665C48.6922 87.8743 48.6959 87.8807 48.699 87.8858C48.7005 87.8884 48.7018 87.8906 48.7029 87.8925C48.7035 87.8935 48.704 87.8943 48.7045 87.8951C48.7047 87.8955 48.705 87.896 48.7051 87.8962C48.7054 87.8967 48.7057 87.8972 49.3152 87.5275C49.9247 87.1578 49.925 87.1582 49.9252 87.1586C49.9253 87.1588 49.9255 87.1592 49.9257 87.1594C49.9259 87.1598 49.9262 87.1602 49.9263 87.1605C49.9267 87.1611 49.9269 87.1614 49.9269 87.1614C49.9268 87.1613 49.9261 87.1601 49.9247 87.1576C49.9218 87.1526 49.9163 87.1428 49.9085 87.1283C49.8928 87.0993 49.8682 87.0517 49.8378 86.9866C49.7771 86.8564 49.694 86.6576 49.6147 86.3998C49.456 85.884 49.314 85.1378 49.3908 84.233C49.5419 82.4555 50.5528 79.9118 54.3311 77.2286L53.5056 76.0662ZM49.3152 88.2403H77.2558V86.8146H49.3152V88.2403ZM77.8151 87.0855C76.1684 85.0017 75.7608 81.7178 75.8274 77.7067C75.8604 75.7236 76.0061 73.618 76.1462 71.4557C76.2858 69.3016 76.4192 67.0961 76.4219 64.9486C76.4272 60.6757 75.9187 56.4995 73.7933 53.3074C71.6326 50.0623 67.8988 47.9703 61.784 47.664L61.7127 49.0879C67.5108 49.3783 70.7626 51.328 72.6066 54.0976C74.486 56.9202 75.0015 60.7315 74.9962 64.9468C74.9936 67.0434 74.8632 69.2072 74.7235 71.3635C74.5844 73.5117 74.4356 75.6575 74.4019 77.6831C74.3354 81.6893 74.7064 85.4512 76.6965 87.9695L77.8151 87.0855ZM61.8629 47.6723C60.4268 47.4385 58.8207 47.3592 57.0274 47.4486L57.0985 48.8725C58.8089 48.7872 60.3128 48.8644 61.6338 49.0795L61.8629 47.6723ZM57.0274 47.4486C56.2328 47.4883 55.4008 47.5611 54.53 47.6684L54.7044 49.0834C55.5436 48.98 56.341 48.9103 57.0985 48.8725L57.0274 47.4486ZM57.1145 42.6057L61.1522 48.7667L62.3446 47.9852L58.3069 41.8242L57.1145 42.6057ZM56.3501 42.3841V48.1606H57.7758V42.3841H56.3501ZM48.9156 52.304C49.8843 51.5743 50.8019 50.8377 51.7756 50.2336C52.7401 49.6351 53.6997 49.2072 54.7044 49.0834L54.53 47.6684C53.2401 47.8274 52.0788 48.3676 51.0239 49.0221C49.9781 49.671 48.9777 50.4723 48.0578 51.1653L48.9156 52.304ZM58.7191 65.9035C60.5192 65.2029 61.7693 63.9084 62.7486 62.0287L61.4842 61.37C60.6211 63.0267 59.602 64.03 58.202 64.5749L58.7191 65.9035ZM51.7858 66.5288C51.9311 66.4162 52.1374 66.3556 52.3569 66.3793L52.5096 64.9618C51.9498 64.9015 51.3697 65.0475 50.9124 65.4019L51.7858 66.5288ZM44.2311 70.4184C45.0048 70.9719 46.0768 70.9536 46.8293 70.3703L45.956 69.2435C45.7034 69.4392 45.3238 69.4472 45.0606 69.2589L44.2311 70.4184ZM40.2779 66.5836C40.2779 67.2299 40.601 67.8213 41.1214 68.1936L41.951 67.0341C41.7836 66.9144 41.7036 66.7444 41.7036 66.5836H40.2779ZM58.3069 41.8242C58.0175 41.3826 57.5166 41.2826 57.1378 41.3815C56.7569 41.481 56.3501 41.8268 56.3501 42.3841H57.7758C57.7758 42.4802 57.7385 42.5761 57.6755 42.6483C57.6181 42.7141 57.5521 42.7468 57.498 42.761C57.3971 42.7873 57.2201 42.767 57.1145 42.6057L58.3069 41.8242ZM40.9146 61.7715C40.5138 62.1443 40.2779 62.6614 40.2779 63.2126H41.7036C41.7036 63.0743 41.7622 62.9302 41.8856 62.8155L40.9146 61.7715ZM48.0098 54.4443C48.2166 54.6687 48.2074 54.9887 47.9756 55.2043L48.9466 56.2483C49.7476 55.5033 49.8019 54.2851 49.0582 53.4781L48.0098 54.4443ZM48.7962 53.1939C48.5717 52.9502 48.5873 52.5513 48.9156 52.304L48.0578 51.1653C47.1121 51.8777 46.9054 53.246 47.7478 54.16L48.7962 53.1939ZM48.7239 53.1256L34.739 41.6637L33.8352 42.7663L47.8201 54.2283L48.7239 53.1256ZM47.9756 55.2043L45.9072 57.1281L46.8781 58.1721L48.9466 56.2483L47.9756 55.2043ZM45.9072 57.1281L40.9146 61.7715L41.8856 62.8155L46.8781 58.1721L45.9072 57.1281ZM33.7262 42.6549L45.8317 58.09L46.9536 57.2102L34.848 41.7751L33.7262 42.6549ZM52.3569 66.3793C53.4721 66.4993 54.4841 66.5484 55.4056 66.5164L55.3561 65.0916C54.5191 65.1206 53.577 65.0767 52.5096 64.9618L52.3569 66.3793ZM55.4056 66.5164C56.6557 66.473 57.7518 66.28 58.7191 65.9035L58.202 64.5749C57.4213 64.8788 56.4916 65.0522 55.3561 65.0916L55.4056 66.5164ZM54.271 77.2669C55.8178 76.3865 56.8619 75.3482 57.4983 74.2181C58.1356 73.0863 58.3401 71.9045 58.273 70.7774C58.1406 68.5521 56.9525 66.5262 55.919 65.3365L54.8427 66.2715C55.7489 67.3147 56.7421 69.0528 56.8498 70.8621C56.9028 71.7523 56.7421 72.6553 56.256 73.5186C55.769 74.3836 54.9315 75.2505 53.5658 76.0279L54.271 77.2669Z" fill="#333333"/>
<ellipse cx="53.8184" cy="55.4941" rx="1.5625" ry="1.5625" transform="rotate(90 53.8184 55.4941)" fill="#333333"/>
<path d="M75.6037 13.2041C76.1755 12.2531 76.2782 11.4637 76.3219 9.60352C76.3655 11.4637 76.4683 12.2531 77.0401 13.2041C77.3268 13.681 77.3268 14.276 77.0401 14.7529C76.4683 15.704 76.3655 16.4933 76.3219 18.3535C76.2782 16.4933 76.1755 15.704 75.6037 14.7529C75.317 14.276 75.317 13.681 75.6037 13.2041Z" fill="#F75900" stroke="#F75900" stroke-width="1.42569" stroke-linecap="round" stroke-linejoin="round"/>
<path d="M97.4218 16.3066C100.117 13.1807 100.537 11.2314 100.702 5.54102C100.867 11.2314 101.287 13.1807 103.982 16.3066C104.454 16.8532 104.454 17.6663 103.982 18.2129C101.287 21.3388 100.867 23.2882 100.702 28.9785C100.537 23.2882 100.117 21.3388 97.4218 18.2129C96.9505 17.6663 96.9505 16.8532 97.4218 16.3066Z" fill="#F75900" stroke="#F75900" stroke-width="1.42569" stroke-linecap="round" stroke-linejoin="round"/>
<path d="M82.2352 28.1371C83.6991 26.2667 83.9373 24.9779 84.0331 21.4785C84.1289 24.9779 84.367 26.2667 85.8309 28.1371C86.2175 28.631 86.2175 29.326 85.8309 29.8199C84.367 31.6903 84.1289 32.9791 84.0331 36.4785C83.9373 32.9791 83.6991 31.6903 82.2352 29.8199C81.8487 29.326 81.8487 28.631 82.2352 28.1371Z" stroke="#333333" stroke-width="1.42569" stroke-miterlimit="10" stroke-linecap="round" stroke-linejoin="round"/>
<path d="M51.454 12.445C52.5927 11.1202 52.7779 10.2073 52.8524 7.72852C52.9269 10.2073 53.1122 11.1202 54.2508 12.445C54.5515 12.7948 54.5515 13.2872 54.2508 13.637C53.1122 14.9619 52.9269 15.8748 52.8524 18.3535C52.7779 15.8748 52.5927 14.9619 51.454 13.637C51.1533 13.2872 51.1533 12.7948 51.454 12.445Z" stroke="#333333" stroke-width="1.42569" stroke-miterlimit="10" stroke-linecap="round" stroke-linejoin="round"/>
<path d="M104.658 44.005C107.102 41.1708 107.483 39.4034 107.632 34.2441C107.782 39.4034 108.163 41.1708 110.607 44.005C111.034 44.5005 111.034 45.2377 110.607 45.7333C108.163 48.5674 107.782 50.3349 107.632 55.4941C107.483 50.3349 107.102 48.5674 104.658 45.7333C104.231 45.2377 104.231 44.5005 104.658 44.005Z" stroke="#333333" stroke-width="1.42569" stroke-miterlimit="10" stroke-linecap="round" stroke-linejoin="round"/>
</svg>
