<svg width="121" height="121" viewBox="0 0 121 121" fill="none" xmlns="http://www.w3.org/2000/svg">
<path d="M52.7439 42.9189C52.0504 42.5569 43.3755 46.2382 45.2439 54.1689C46.2879 61.6689 46.9128 65.7821 46.9128 65.7821C46.9128 65.7821 47.7438 71.0439 41.5447 69.7939C42.1697 81.0439 20.9195 74.5652 34.6697 63.3152C30.2946 60.1902 32.8241 52.6907 41.5447 51.4402C39.5471 39.1774 45.8689 39.6689 52.7439 42.9189Z" fill="#F75900"/>
<path d="M9.1447 12.6798C11.5884 9.84564 11.9693 8.07819 12.1188 2.91895C12.2683 8.07819 12.6492 9.84564 15.0929 12.6798C15.5202 13.1753 15.5202 13.9125 15.0929 14.4081C12.6492 17.2422 12.2683 19.0097 12.1188 24.1689C11.9693 19.0097 11.5884 17.2422 9.1447 14.4081C8.71739 13.9125 8.71739 13.1753 9.1447 12.6798Z" fill="#F75900"/>
<path d="M37.6506 12.7695C38.2224 11.8185 38.3251 11.0291 38.3688 9.16894C38.4124 11.0291 38.5152 11.8185 39.087 12.7695C39.3737 13.2465 39.3737 13.8414 39.087 14.3183C38.5152 15.2694 38.4124 16.0588 38.3688 17.9189C38.3251 16.0588 38.2224 15.2694 37.6506 14.3183C37.3639 13.8414 37.3639 13.2465 37.6506 12.7695Z" fill="#F75900"/>
<path d="M52.7439 42.9189C52.0504 42.5569 43.3755 46.2382 45.2439 54.1689C46.2879 61.6689 46.9128 65.7821 46.9128 65.7821C46.9128 65.7821 47.7438 71.0439 41.5447 69.7939C42.1697 81.0439 20.9195 74.5652 34.6697 63.3152C30.2946 60.1902 32.8241 52.6907 41.5447 51.4402C39.5471 39.1774 45.8689 39.6689 52.7439 42.9189Z" stroke="#F75900" stroke-width="1.42569" stroke-linecap="round" stroke-linejoin="round"/>
<path d="M9.1447 12.6798C11.5884 9.84564 11.9693 8.07819 12.1188 2.91895C12.2683 8.07819 12.6492 9.84564 15.0929 12.6798C15.5202 13.1753 15.5202 13.9125 15.0929 14.4081C12.6492 17.2422 12.2683 19.0097 12.1188 24.1689C11.9693 19.0097 11.5884 17.2422 9.1447 14.4081C8.71739 13.9125 8.71739 13.1753 9.1447 12.6798Z" stroke="#F75900" stroke-width="1.42569" stroke-linecap="round" stroke-linejoin="round"/>
<path d="M37.6506 12.7695C38.2224 11.8185 38.3251 11.0291 38.3688 9.16894C38.4124 11.0291 38.5152 11.8185 39.087 12.7695C39.3737 13.2465 39.3737 13.8414 39.087 14.3183C38.5152 15.2694 38.4124 16.0588 38.3688 17.9189C38.3251 16.0588 38.2224 15.2694 37.6506 14.3183C37.3639 13.8414 37.3639 13.2465 37.6506 12.7695Z" stroke="#F75900" stroke-width="1.42569" stroke-linecap="round" stroke-linejoin="round"/>
<path d="M48.3595 96.045C45.8595 89.17 41.7852 75.4547 45.2852 73.9547C49.0323 72.3488 45.8725 55.4199 45.8725 55.4199C45.8725 55.4199 44.0354 47.0797 52.1604 43.3297C52.5408 43.1541 52.9589 42.9877 53.4104 42.8299C60.6716 40.2926 76.2304 40.0087 83.6836 40.2048M54.6604 97.0798C52.7854 91.2464 50.1604 79.2048 54.6604 77.7048C58.0854 76.5631 61.7277 67.6249 64.0991 60.2048M60.8595 96.045C58.5678 91.045 55.1604 80.7048 59.6604 77.7048C64.1604 74.7047 70.0262 66.8715 72.7345 62.7048M72.7345 62.7048C70.7345 61.2048 66.3695 59.9964 64.0991 60.2048M72.7345 62.7048C77.1095 65.2048 84.8446 66.0449 87.7612 65.4199C88.8029 68.9616 88.4975 77.3559 86.4975 82.8559M65.9103 53.9548C65.4624 55.6966 64.8434 57.8759 64.0991 60.2048M105.872 25.4199C108.006 24.0459 116.535 19.5798 116.535 19.5798L117.086 20.2876C118.559 22.1785 118.482 24.8482 116.904 26.6517L115.962 27.7284C115.491 28.2665 115.141 28.8993 114.936 29.5842L114.204 32.023C113.69 33.7377 112.298 35.0465 110.555 35.4546L109.269 35.7556C107.437 36.1846 106 37.606 105.552 39.4336L103.984 45.8298C103.737 46.6213 103.433 47.8133 103.099 49.1699M93.9314 79.795C95.8822 75.8176 97.5856 71.4097 98.4103 67.0798C98.8212 64.9227 99.1735 63.328 99.6307 61.6699M52.7802 109.73C65.8944 104.122 69.8605 100.586 73.8424 96.5565C76.3191 94.0551 78.916 90.8601 80.9701 87.7916M52.7802 109.73C39.5706 110.421 30.3294 103.822 21.6875 110.37C19.1563 112.292 17.4777 114.692 16.3499 116.893C15.5718 118.412 13.9886 119.449 12.3549 118.955C9.9208 118.219 6.50589 116.596 4.22576 113.03C2.76702 110.748 2.27716 108.458 2.12243 106.83C2.03655 105.926 2.37988 105.049 2.98771 104.375C8.80075 97.927 19.9815 87.3818 36.1053 82.0894C38.7391 81.225 41.3847 80.5271 43.9845 79.9662M52.7802 109.73C54.3194 109.65 55.9126 109.47 57.5649 109.159C75.8461 105.742 91.5382 90.688 94.1592 83.9838M80.9701 87.7916C83.8995 83.4156 85.7252 79.2966 84.5245 77.8126C83.7456 76.849 81.6393 76.9366 80.3756 77.295C78.0707 77.948 76.9341 79.955 76.648 80.4965C74.6757 84.4491 72.3118 88.0094 69.3621 90.8852M80.9701 87.7916C80.9701 87.7916 88.7219 79.2774 93.0514 80.5687M69.3621 90.8852C66.3684 93.8039 62.7713 96.0177 58.3675 97.2211C52.1171 98.7869 46.6347 95.7351 41.9203 91.8484C41.7578 91.7143 41.5865 91.5924 41.4022 91.4903C40.1225 90.7815 37.6442 89.6632 34.4122 89.7667C28.8327 89.934 25.3276 93.5974 24.6203 94.37M69.3621 90.8852L69.471 90.8734M69.3621 90.8852C65.9901 91.2451 62.0727 91.1724 58.9845 90.926M94.1592 83.9838C94.5738 82.9232 94.6613 82.0715 94.3801 81.508C94.1655 81.0859 93.7681 80.8788 93.5138 80.7514C93.3647 80.6767 93.2104 80.6161 93.0514 80.5687M94.1592 83.9838C94.386 83.7714 97.1053 81.2936 99.8246 82.2645C100.007 82.3282 101.82 83.0052 102.034 84.375C102.209 85.4581 101.319 86.589 99.8246 87.7916C94.9684 91.6781 78.1901 100.677 75.4798 102.127M94.1592 83.9838L94.1497 83.9927M93.0514 80.5687C94.1722 79.3322 95.8768 78.9765 97.1619 79.6363C98.5051 80.3212 98.8071 81.8105 98.8469 82.0096M93.0514 80.5687L93.0448 80.576M59.6095 77.9539C66.5132 77.6109 71.6404 78.0376 73.0476 78.2391C75.8294 78.6373 75.7182 82.0495 74.7247 83.945C73.8186 85.6732 71.8236 86.2227 65.0281 87.2979C63.0163 87.6159 61.025 88.1706 58.3595 88.545M103.099 49.1699C102.398 52.0167 101.568 55.5884 100.859 57.7048C100.352 59.2213 99.9636 60.4624 99.6307 61.6699M103.099 49.1699C108.607 52.3928 118.872 61.0297 115.872 69.7949C112.872 78.5601 110.456 82.8805 109.622 83.945L105.872 82.2949C107.122 77.9199 109.372 68.6699 108.372 66.6699C107.372 64.6699 102.128 62.5033 99.6307 61.6699M25.8725 26.6699C25.7767 30.1693 25.5385 31.4581 24.0746 33.3285C23.6881 33.8224 23.6881 34.5175 24.0746 35.0113C25.5385 36.8817 25.7767 38.1705 25.8725 41.6699C25.9683 38.1705 26.2065 36.8817 27.6703 35.0113C28.0569 34.5175 28.0569 33.8224 27.6703 33.3285C26.2065 31.4581 25.9683 30.1693 25.8725 26.6699ZM55.8725 15.4199C55.723 20.5792 55.3421 22.3466 52.8984 25.1807C52.4711 25.6763 52.4711 26.4135 52.8984 26.9091C55.3421 29.7432 55.723 31.5107 55.8725 36.6699C56.022 31.5107 56.4029 29.7432 58.8466 26.9091C59.2739 26.4135 59.2739 25.6763 58.8466 25.1807C56.4029 22.3466 56.022 20.5792 55.8725 15.4199Z" stroke="#333333" stroke-width="1.42569" stroke-miterlimit="10" stroke-linecap="round" stroke-linejoin="round"/>
<path d="M100.283 29.1689L97.1581 24.7939C98.2337 25.1973 100.16 25.861 101.794 26.2809L101.533 17.9189C97.5331 17.9189 96.9497 19.5856 97.1581 20.4189C94.6581 18.5439 89.2122 19.7368 90.2831 26.0439C81.5331 24.1689 81.0116 32.6084 84.0331 35.4189C83.5001 37.0179 83.4076 38.5207 83.6814 39.794C84.3707 43.0002 87.3826 44.7516 91.5331 42.9189C92.7831 50.4189 100.908 46.6689 100.283 42.2939C103.408 41.0439 103.408 36.6689 101.533 34.1689C100.033 32.1689 100.075 30.0023 100.283 29.1689Z" fill="#F75900"/>
<path d="M105.247 26.2809L103.325 17.9189C104.63 18.4176 105.272 18.8422 105.908 20.419C108.566 19.7139 110.456 20.5797 111.495 23.5439C112.745 27.1081 105.908 27.9189 105.247 26.2809Z" fill="#F75900"/>
<path d="M107.121 28.5449L108.371 29.1699M102.121 26.6699V26.6917C103.019 26.9225 103.829 27.0797 104.361 27.0797C104.613 27.0797 105.033 26.9385 105.575 26.6917L103.652 18.3297L102.121 11.6699V26.6699ZM102.121 26.6699L96.4961 24.7949L101.496 30.4199" stroke="#333333" stroke-width="1.42569" stroke-miterlimit="10" stroke-linecap="round" stroke-linejoin="round"/>
</svg>
