<svg width="137" height="137" viewBox="0 0 137 137" fill="none" xmlns="http://www.w3.org/2000/svg">
<path d="M91.3971 135.156C78.649 132.807 74.4257 130.465 70.0896 127.688C67.3936 125.966 64.4525 123.653 62.0177 121.343M91.3971 135.156C103.247 133.127 110.12 125.429 119.091 129.506C121.719 130.704 123.687 132.496 125.128 134.222C126.121 135.413 127.732 136.016 129.082 135.251C131.093 134.112 133.796 131.99 135.104 128.373C135.941 126.058 135.917 123.929 135.729 122.455C135.624 121.637 135.145 120.928 134.471 120.451C128.028 115.898 116.007 108.784 100.654 107.316C84.6168 105.784 69.5182 110.38 67.1315 111.29C64.7449 112.199 65.5258 115.202 66.7856 116.684C67.9345 118.035 69.8131 118.123 76.0528 117.717C78.7822 117.539 82.1124 117.333 86.1738 116.922M91.3971 135.156C90.0163 135.393 88.568 135.552 87.0409 135.607C70.1499 136.232 53.2275 126.024 49.5633 120.604M62.0177 121.343C58.5456 118.049 56.1034 114.762 56.8711 113.206C57.369 112.196 59.2538 111.853 60.4459 111.918C62.62 112.036 64.0289 113.588 64.3909 114.011C66.9299 117.121 69.7375 119.805 72.9278 121.764M62.0177 121.343C62.0177 121.343 53.4427 115.344 49.8624 117.355M72.9278 121.764C76.1655 123.753 79.7973 124.997 83.9421 125.183C89.7967 125.321 94.0471 121.52 97.4495 117.131C97.5668 116.98 97.6943 116.837 97.8373 116.71C98.8301 115.826 100.804 114.339 103.69 113.784C108.67 112.817 112.51 115.364 113.292 115.907M72.9278 121.764C76.197 121.385 79.919 120.444 82.6729 119.555C83.9071 119.157 85.1362 118.102 86.1738 116.922M72.9278 121.764C72.8947 121.768 72.8618 121.772 72.8288 121.776M86.1738 116.922C87.4747 115.442 88.4746 113.764 88.8064 112.934M49.5633 120.604C48.9835 119.747 48.7357 119.009 48.8723 118.453C48.9781 118.036 49.2891 117.773 49.4891 117.609C49.6063 117.513 49.731 117.429 49.8624 117.355M49.5633 120.604C49.3197 120.461 46.4134 118.808 44.1966 120.213C44.0473 120.306 42.5761 121.268 42.6597 122.526C42.7213 123.521 43.7366 124.346 45.3018 125.113C50.3844 127.588 67.0591 132.211 69.7518 132.954M49.5633 120.604C49.5674 120.607 49.5708 120.609 49.5734 120.61M49.8624 117.355C48.6215 116.483 47.0392 116.508 46.0318 117.35C44.9779 118.226 45.0079 119.607 45.0125 119.791M49.8624 117.355C49.8649 117.357 49.8673 117.358 49.8698 117.36" stroke="#333333" stroke-width="1.43" stroke-miterlimit="10" stroke-linecap="round" stroke-linejoin="round"/>
<path d="M71.2407 64.7278C57.0737 56.2279 45.0325 72.5193 52.1157 76.7694C34.6315 84.6802 46.4489 102.978 60.6159 96.6029C81.3586 97.937 88.8469 94.7389 96.7409 83.853C117.991 81.0196 119.867 69.3865 103.116 64.7278C98.8659 49.1449 79.7409 48.4364 71.2407 64.7278Z" fill="#F75900"/>
<path d="M102.867 108.023C102.867 113.5 98.4273 117.94 92.9505 117.94C87.4737 117.94 83.0339 113.5 83.0339 108.023C83.0339 102.547 87.4737 98.1068 92.9505 98.1068C98.4273 98.1068 102.867 102.547 102.867 108.023Z" fill="#F75900"/>
<path d="M73.1172 49.9401C73.1172 53.0697 70.5801 55.6068 67.4505 55.6068C64.3209 55.6068 61.7839 53.0697 61.7839 49.9401C61.7839 46.8105 64.3209 44.2734 67.4505 44.2734C70.5801 44.2734 73.1172 46.8105 73.1172 49.9401Z" fill="#F75900"/>
<path d="M72.3667 54.3145C72.3667 54.3145 82.3238 65.5226 71.95 68.7423C61.5761 71.962 66.0382 79.1595 66.0382 79.1595M71.6989 99.0826C72.5081 102.724 75.306 103.928 78.7305 104.239" stroke="#000577" stroke-linecap="round" stroke-linejoin="round" stroke-dasharray="2 2"/>
<path d="M15.9547 33.0091C18.9744 32.6408 21.1531 32.9979 22.7373 33.5993M22.7373 33.5993C23.4721 33.8782 24.0789 34.2097 24.5824 34.5456C26.1765 35.6192 26.9495 36.8858 29.2141 37.8089C31.3324 38.6667 33.1258 38.5567 34.1256 38.5532C38.7382 38.517 46.1366 37.7569 50.7037 42.0006C53.1532 44.2788 56.7055 46.8864 58.6251 48.1913C60.5446 49.4962 61.6595 47.6973 61.7719 47.3964C62.2712 46.2041 62.1208 42.3633 58.3729 37.8819C53.2393 31.7618 48.3646 32.7782 46.7813 28.1661C45.9593 25.7806 46.2575 22.5569 48.0865 21.1135C49.7424 19.8122 52.5493 20.0121 54.4995 21.0252C62.2637 25.0615 58.5864 42.9576 64.1612 44.2065C64.3605 44.2516 64.9797 44.3635 65.6229 44.1021C69.3683 42.5926 68.2542 30.8839 66.0078 23.1126C65.2249 20.3937 64.6907 18.6413 63.2742 16.6048M22.7373 33.5993C21.6905 38.9749 21.6298 42.1924 20.8337 47.0356C20.6215 48.3265 19.517 49.2956 18.2124 49.1969C11.3778 48.6798 4.8875 44.4096 1.86987 38.2421C1.70864 37.9398 1.56881 37.6141 1.57647 37.2774C1.58332 36.8197 1.85755 36.4266 2.12363 36.0517C5.80273 30.8816 9.21363 25.5259 12.3349 20.008C14.0078 17.0469 17.4188 15.3772 20.5688 14.0957C28.4779 10.9015 36.8864 8.97247 45.3904 8.4024M63.2742 16.6048C59.9953 11.9068 54.962 10.0174 53.2418 9.37164L53.2216 9.36403C52.1045 8.94216 51.226 8.74749 50.9454 8.68804C49.4426 8.36827 47.7473 8.25873 45.3904 8.4024M63.2742 16.6048L84.441 15.9071C84.441 15.9071 90.4928 15.866 91.971 13.7834C93.4492 11.7007 89.4225 10.8899 88.1766 10.8055C61.2395 8.95048 63.9155 8.92738 59.9975 8.95562C57.6663 8.96812 55.3646 8.74096 50.9037 8.65848M45.3904 8.4024C50.3037 6.73416 75.2019 -0.186017 77.0711 1.84413C78.9402 3.87427 75.4055 5.6169 74.4801 6.09243M49.4126 8.44538C49.4126 8.44538 62.9291 6.31076 74.4801 6.09243M74.4801 6.09243C79.5096 5.99737 84.1664 6.2656 87.1727 7.23152L87.1792 7.23365C87.8233 7.44403 89.1656 7.88251 89.2838 8.74432C89.4075 9.62229 88.2606 10.47 87.894 10.7013M34.8681 52.7722C34.7004 58.2194 34.2758 60.1219 31.5813 63.0918C31.0606 63.6657 31.0606 64.5453 31.5813 65.1191C34.2758 68.0891 34.7004 69.9916 34.8681 75.4388C35.0359 69.9916 35.4605 68.0891 38.155 65.1191C38.6756 64.5453 38.6756 63.6657 38.155 63.0918C35.4605 60.1219 35.0359 58.2194 34.8681 52.7722ZM109.951 48.5222C109.786 53.5673 109.369 55.369 106.761 58.0964C106.201 58.6823 106.201 59.612 106.761 60.1979C109.369 62.9253 109.786 64.727 109.951 69.7721C110.117 64.727 110.534 62.9253 113.142 60.1979C113.702 59.612 113.702 58.6823 113.142 58.0964C110.534 55.369 110.117 53.5673 109.951 48.5222ZM101.451 31.5222C101.349 34.6556 101.101 35.9124 99.6612 37.5398C99.1241 38.147 99.1241 39.0639 99.6612 39.6712C101.101 41.2986 101.349 42.5554 101.451 45.6888C101.554 42.5554 101.802 41.2986 103.242 39.6712C103.779 39.0639 103.779 38.147 103.242 37.5398C101.802 35.9124 101.554 34.6556 101.451 31.5222ZM100.035 108.022C100.035 111.934 96.8635 115.105 92.9515 115.105C89.0394 115.105 85.8681 111.934 85.8681 108.022C85.8681 104.11 89.0394 100.939 92.9515 100.939C96.8635 100.939 100.035 104.11 100.035 108.022ZM71.7015 49.9388C71.7015 52.286 69.7987 54.1888 67.4515 54.1888C65.1043 54.1888 63.2015 52.286 63.2015 49.9388C63.2015 47.5916 65.1043 45.6888 67.4515 45.6888C69.7987 45.6888 71.7015 47.5916 71.7015 49.9388ZM44.7848 83.9388C44.6819 87.0723 44.4339 88.329 42.9945 89.9565C42.4575 90.5637 42.4575 91.4806 42.9945 92.0878C44.4339 93.7153 44.6819 94.972 44.7848 98.1055C44.8877 94.972 45.1357 93.7153 46.5751 92.0878C47.1121 91.4806 47.1121 90.5637 46.5751 89.9565C45.1357 88.329 44.8877 87.0723 44.7848 83.9388Z" stroke="#333333" stroke-width="1.43" stroke-linecap="round" stroke-linejoin="round"/>
</svg>
